<svg id="Layer_1" data-name="Layer 1" xmlns="http://www.w3.org/2000/svg" xmlns:xlink="http://www.w3.org/1999/xlink" viewBox="0 0 325.02 459.38"><defs><linearGradient id="linear-gradient" x1="269" y1="369.31" x2="336.01" y2="369.31" gradientTransform="matrix(1, 0, 0, -1, -11.65, 459.88)" gradientUnits="userSpaceOnUse"><stop offset="0" stop-color="#232222"/><stop offset="0" stop-color="#171616"/><stop offset="1" stop-color="#161616"/></linearGradient><linearGradient id="linear-gradient-2" x1="241.03" y1="383.39" x2="274.67" y2="383.39" gradientTransform="matrix(1, 0, 0, -1, -87.85, 463.66)" xlink:href="#linear-gradient"/></defs><title>favicon</title><g id="Layer_3" data-name="Layer 3"><path d="M408.21,55.12h4.61a34.73,34.73,0,0,0-34.73-34.73h0a35.81,35.81,0,0,0-3.59.18,34.73,34.73,0,0,1,31.06,32.35c.05.73.08,1.46.08,2.2H401V58h4.61v1.68A34.73,34.73,0,0,1,374.54,92.5c1.19.12,2.39.18,3.59.19A34.74,34.74,0,0,0,412.87,58h-4.61Z" transform="translate(-87.85 -10.34)" fill="#fc6d5d"/><rect x="260.11" y="44.78" width="53.07" height="2.83" fill="#fc6d5d"/><path d="M401,58H343.35v1.68a34.74,34.74,0,0,0,31.1,32.87,34.73,34.73,0,0,0,31.09-32.87V58Z" transform="translate(-87.85 -10.34)" fill="red"/><path d="M405.55,52.92a34.73,34.73,0,0,0-31.06-32.35,34.72,34.72,0,0,0-31.06,32.35c-.05.73-.08,1.46-.08,2.2h62.28C405.63,54.38,405.6,53.65,405.55,52.92Z" transform="translate(-87.85 -10.34)" fill="red"/><path d="M357.65,42.28a6.28,6.28,0,0,1,12.52-.65V41a7.61,7.61,0,1,0-7.62,7.6h.69A6.29,6.29,0,0,1,357.65,42.28Z" transform="translate(-87.85 -10.34)" fill="#fb6a58"/><path d="M370.17,41.63a6.28,6.28,0,1,0-6.89,6.9A7.6,7.6,0,0,0,370.17,41.63Z" transform="translate(-87.85 -10.34)" fill="#fb6a58"/><path d="M-74.24,214.92" transform="translate(-87.85 -10.34)" fill="#f7f7f7"/></g><g id="Layer_2" data-name="Layer 2"><rect x="118.54" y="2.67" width="1.85" height="44.72" fill="#2d4059"/><circle cx="119.46" cy="2.67" r="2.67" fill="#ffb400"/></g><g id="Layer_1-2" data-name="Layer 1"><path d="M267.25,172.61a150,150,0,1,0-29.4,297.11h0V172.61Z" transform="translate(-87.85 -10.34)" fill="#f4f4f4"/><path d="M387.85,319.72a150,150,0,0,0-120.6-147.11H237.88V469.72A150,150,0,0,0,387.85,319.72Z" transform="translate(-87.85 -10.34)" fill="#e8e8e8"/><line x1="300" y1="309.38" x2="240.83" y2="309.38" fill="none" stroke="#fff" stroke-miterlimit="10" stroke-width="6"/><line x1="150" y1="459.38" x2="150" y2="400.2" fill="none" stroke="#fff" stroke-miterlimit="10" stroke-width="6"/><line y1="309.38" x2="59.18" y2="309.38" fill="none" stroke="#fff" stroke-miterlimit="10" stroke-width="6"/><line x1="150" y1="159.38" x2="150" y2="218.56" fill="none" stroke="#fff" stroke-miterlimit="10" stroke-width="6"/><line x1="275.5" y1="81.88" x2="245.49" y2="81.88" fill="none"/><line x1="54.51" y1="81.88" x2="30.5" y2="81.88" fill="none"/><polygon points="239.8 162.88 60.21 162.88 44.5 141.88 255.5 141.88 239.8 162.88" fill="#efefef"/><circle cx="150" cy="309.38" r="90.82" fill="#ffb400"/><circle cx="149.97" cy="309.36" r="64.83" fill="#e8e8e8"/><polygon points="193.5 317.6 193.5 302.16 223.5 299.88 223.5 319.88 193.5 317.6" fill="#ffb400"/><polygon points="141.78 352.88 157.23 352.88 159.5 382.88 139.5 382.88 141.78 352.88" fill="#ffb400"/><path d="M230.63,276.22l-.51-6.64A50.17,50.17,0,0,0,187.87,311l6.48.5v15.44l-6.48.5a50.16,50.16,0,1,0,58.68-57.52l-.48,6.3Z" transform="translate(-87.85 -10.34)" fill="none"/><path d="M247.54,256.9l.81-10.68h-20l.79,10.4A62,62,0,0,1,247.54,256.9Z" transform="translate(-87.85 -10.34)" fill="#ffb400"/><path d="M230.12,269.58l.51,6.64h15.44l.48-6.3a50,50,0,0,0-16.43-.34Z" transform="translate(-87.85 -10.34)" fill="#ffb400"/><path d="M194.35,311.5l-6.48-.5a49.84,49.84,0,0,0,0,16.44l6.48-.5Z" transform="translate(-87.85 -10.34)" fill="#ffb400"/><path d="M174.87,310l-10.52-.8v20l10.52-.8a63.73,63.73,0,0,1,0-18.4Z" transform="translate(-87.85 -10.34)" fill="#ffb400"/><path d="M237.35,269.06a49.77,49.77,0,0,1,9.2.86l1-13a62,62,0,0,0-18.4-.28l1,13A49.58,49.58,0,0,1,237.35,269.06Z" transform="translate(-87.85 -10.34)" fill="#ffb400"/><path d="M187.19,319.22a50.19,50.19,0,0,1,.68-8.22l-13-1a63.73,63.73,0,0,0,0,18.4l13-1A49.89,49.89,0,0,1,187.19,319.22Z" transform="translate(-87.85 -10.34)" fill="#ffb400"/><path d="M175.86,308.49l13,1a50.21,50.21,0,0,1,39.7-38.91l-1-13A63.18,63.18,0,0,0,175.86,308.49Z" transform="translate(-87.85 -10.34)" fill="#5571ef"/><circle cx="150" cy="309.38" r="28.5" fill="none" stroke="#ccc" stroke-miterlimit="10" stroke-width="2"/><circle cx="150" cy="309.38" r="28.5" fill="none" stroke="#ccc" stroke-miterlimit="10" stroke-width="2"/><circle cx="149.5" cy="309.38" r="15.1" fill="none" stroke="#ccc" stroke-miterlimit="10" stroke-width="2"/><path d="M300.08,331.22" transform="translate(-87.85 -10.34)" fill="#e8e8e8"/><path d="M340.65,380.05" transform="translate(-87.85 -10.34)" fill="#e8e8e8"/><path d="M260.35,328l-3.16-.26-3.17-.25-2.45-.2-1.12-.09-1.11-.09h0a14.09,14.09,0,0,1-25-12.86l.06-.11.09-.19.42-.93-13.74-5.82-.48,1.07-.13.3a29.45,29.45,0,0,0,35.22,39.84l2.72,33.68a63.2,63.2,0,0,0,51.75-50.89Z" transform="translate(-87.85 -10.34)" fill="#5571ef"/><circle cx="196.54" cy="197.1" r="5.2" fill="#2947a8"/><circle cx="262.16" cy="263.24" r="5.2" fill="#2947a8"/><circle cx="261.79" cy="356.42" r="5.2" fill="#2947a8"/><circle cx="195.64" cy="422.04" r="5.2" fill="#2947a8"/><circle cx="102.47" cy="421.66" r="5.2" fill="#2947a8"/><circle cx="36.85" cy="355.51" r="5.2" fill="#2947a8"/><circle cx="125.07" cy="272.68" r="5.2" transform="translate(-114.11 3.31) rotate(-5.65)" fill="#2947a8"/><circle cx="103.37" cy="196.72" r="5.2" fill="#2947a8"/><path d="M324.23,90.54A107.19,107.19,0,0,0,315,79.27H278.07a23.3,23.3,0,0,0-7.72-8.16h36a105.68,105.68,0,0,0-137,0h76a23.19,23.19,0,0,0-7.68,8.16h-76.8a105.59,105.59,0,0,0-25.71,47.33h10.62v22.14H132.21v3.48H257.35V114a22.75,22.75,0,0,0,23.43-22c0-.47,0-.94,0-1.4ZM181,148.74H152.72V126.6H181Zm27.2,0H187.87V126.6h20.36Z" transform="translate(-87.85 -10.34)" fill="#f7f7f7"/><path d="M145.78,126.6H135.16a105.85,105.85,0,0,0-2.95,22.14h13.57Z" transform="translate(-87.85 -10.34)" fill="#4e72f2"/><rect x="64.87" y="116.26" width="28.32" height="22.14" fill="#4e72f2"/><rect x="100.02" y="116.26" width="20.36" height="22.14" fill="#4e72f2"/><rect x="197.69" y="132.47" width="5.93" height="5.93" fill="#4e72f2"/><rect x="211.78" y="116.26" width="22.14" height="22.14" fill="#4e72f2"/><path d="M328.67,148.74h15a105.26,105.26,0,0,0-3-22.14h-12Z" transform="translate(-87.85 -10.34)" fill="#4e72f2"/><path d="M324.35,90.54h-.13l0,.07Z" transform="translate(-87.85 -10.34)" fill="url(#linear-gradient)"/><path d="M324.23,90.54H280.78a22.75,22.75,0,0,1-22,23.43c-.47,0-.93,0-1.4,0v38.25l66.93-61.61Z" transform="translate(-87.85 -10.34)" fill="#f7f7f7"/><path d="M343.65,148.74h-15V126.6h12a105,105,0,0,0-16.41-36l-.05-.07H280.78a22.75,22.75,0,0,1-22,23.44q-.7,0-1.41,0v38.25h86.33v-.55C343.69,150.69,343.67,149.71,343.65,148.74Zm-52.19,0h-5.92v-5.93h5.92Zm30.3,0H299.62V126.6h22.14Z" transform="translate(-87.85 -10.34)" fill="#e0e0e0"/><circle cx="170" cy="80.27" r="19.5" fill="#494949"/><circle cx="170" cy="80.27" r="16.82" fill="url(#linear-gradient-2)"/><circle cx="165.75" cy="77.03" r="10.19" fill="#fff"/><rect x="64.87" y="116.26" width="28.32" height="22.14" fill="none"/><rect x="100.02" y="116.26" width="20.36" height="22.14" fill="none"/><path d="M245.35,71.11H169.42a106.24,106.24,0,0,0-8.55,8.16h76.76A23.3,23.3,0,0,1,245.35,71.11Z" transform="translate(-87.85 -10.34)" fill="#f7f7f7"/><path d="M245.35,71.11H169.42a106.24,106.24,0,0,0-8.55,8.16h76.76A23.3,23.3,0,0,1,245.35,71.11Z" transform="translate(-87.85 -10.34)" fill="#ffb400"/><path d="M278.07,79.27H315a104.85,104.85,0,0,0-8.57-8.16H270.35A23.3,23.3,0,0,1,278.07,79.27Z" transform="translate(-87.85 -10.34)" fill="#f7f7f7"/><path d="M278.07,79.27H315a104.85,104.85,0,0,0-8.57-8.16H270.35A23.3,23.3,0,0,1,278.07,79.27Z" transform="translate(-87.85 -10.34)" fill="#ffb400"/></g></svg>