<svg xmlns="http://www.w3.org/2000/svg" xmlns:xlink="http://www.w3.org/1999/xlink" viewBox="0 0 300 459.38"><defs><linearGradient id="linear-gradient" x1="269" y1="94.35" x2="336.01" y2="94.35" gradientUnits="userSpaceOnUse"><stop offset="0" stop-color="#232222"/><stop offset="0" stop-color="#171616"/><stop offset="1" stop-color="#161616"/></linearGradient><linearGradient id="linear-gradient-2" x1="153.18" y1="80.27" x2="186.82" y2="80.27" xlink:href="#linear-gradient"/></defs><title>instaling1</title><g id="Layer_2" data-name="Layer 2"><rect x="118.53" y="2.67" width="1.85" height="44.72" fill="#2d4059"/><circle cx="119.46" cy="2.67" r="2.67" fill="#ffb400"/></g><g id="Layer_1" data-name="Layer 1"><path d="M278.9,176.39A150,150,0,1,0,249.5,473.5h0V176.39Z" transform="translate(-99.5 -14.12)" fill="#f4f4f4"/><path d="M399.5,323.5A150,150,0,0,0,278.9,176.39H249.53V473.5A150,150,0,0,0,399.5,323.5Z" transform="translate(-99.5 -14.12)" fill="#e8e8e8"/><line x1="300" y1="309.38" x2="240.82" y2="309.38" fill="#2d4059" stroke="#fff" stroke-miterlimit="10" stroke-width="6"/><line x1="150" y1="459.38" x2="150" y2="400.2" fill="#2d4059" stroke="#fff" stroke-miterlimit="10" stroke-width="6"/><line y1="309.38" x2="59.18" y2="309.38" fill="#2d4059" stroke="#fff" stroke-miterlimit="10" stroke-width="6"/><line x1="150" y1="159.38" x2="150" y2="218.56" fill="#2d4059" stroke="#fff" stroke-miterlimit="10" stroke-width="6"/><line x1="275.5" y1="81.88" x2="245.49" y2="81.88" fill="none"/><line x1="54.51" y1="81.88" x2="30.5" y2="81.88" fill="none"/><polygon points="239.8 162.88 60.2 162.88 44.5 141.88 255.5 141.88 239.8 162.88" fill="#efefef"/><circle cx="150" cy="309.38" r="90.82" fill="#ffb400"/><circle cx="149.97" cy="309.36" r="64.83" fill="#e8e8e8"/><polygon points="193.5 317.6 193.5 302.16 223.5 299.88 223.5 319.88 193.5 317.6" fill="#ffb400"/><polygon points="141.78 352.88 157.22 352.88 159.5 382.88 139.5 382.88 141.78 352.88" fill="#ffb400"/><path d="M242.28,280l-.51-6.64a50.19,50.19,0,0,0-42.25,41.42l6.48.5v15.44l-6.48.5A50.16,50.16,0,1,0,258.2,273.7l-.48,6.3Z" transform="translate(-99.5 -14.12)" fill="none"/><polygon points="140.5 235.88 141.29 246.28 142.27 259.24 142.78 265.88 158.22 265.88 158.7 259.57 159.69 246.56 160.5 235.88 140.5 235.88" fill="#ffb400"/><polygon points="100.02 300.66 87.03 299.68 76.5 298.88 76.5 318.88 87.03 318.08 100.02 317.1 106.5 316.6 106.5 301.16 100.02 300.66" fill="#ffb400"/><path d="M187.51,312.27l13,1a50.22,50.22,0,0,1,39.7-38.91l-1-13A63.18,63.18,0,0,0,187.51,312.27Z" transform="translate(-99.5 -14.12)" fill="#2d4059"/><circle cx="150" cy="309.38" r="28.5" fill="none" stroke="#ccc" stroke-miterlimit="10" stroke-width="2"/><circle cx="150" cy="309.38" r="28.5" fill="none" stroke="#ccc" stroke-miterlimit="10" stroke-width="2"/><circle cx="149.5" cy="309.38" r="15.1" fill="none" stroke="#ccc" stroke-miterlimit="10" stroke-width="2"/><path d="M311.73,335" transform="translate(-99.5 -14.12)" fill="#e8e8e8"/><path d="M352.3,383.83" transform="translate(-99.5 -14.12)" fill="#e8e8e8"/><path d="M272,331.8l-3.16-.26-3.17-.25-2.45-.2L262.1,331l-1.11-.09h0a14.09,14.09,0,0,1-25-12.86l.06-.11.09-.19.42-.93L222.82,311l-.48,1.07-.13.3a29.45,29.45,0,0,0,35.22,39.84l2.72,33.68A63.18,63.18,0,0,0,311.9,335Z" transform="translate(-99.5 -14.12)" fill="#2d4059"/><circle cx="196.54" cy="197.1" r="5.2" fill="#2d4059"/><circle cx="262.16" cy="263.24" r="5.2" fill="#2d4059"/><circle cx="261.78" cy="356.42" r="5.2" fill="#2d4059"/><circle cx="195.64" cy="422.04" r="5.2" fill="#2d4059"/><circle cx="102.46" cy="421.66" r="5.2" fill="#2d4059"/><circle cx="36.84" cy="355.51" r="5.2" fill="#2d4059"/><circle cx="37.22" cy="262.34" r="5.2" fill="#2d4059"/><circle cx="103.36" cy="196.72" r="5.2" fill="#2d4059"/><path d="M335.88,94.32a107.42,107.42,0,0,0-9.23-11.27H289.72A23.28,23.28,0,0,0,282,74.89h36a105.68,105.68,0,0,0-137,0H257a23.28,23.28,0,0,0-7.68,8.16H172.52a105.63,105.63,0,0,0-25.71,47.33h10.62v22.14H143.86c0,1,0,1.95,0,2.93,0,.18,0,.36,0,.55H269V117.75a22.74,22.74,0,0,0,23.43-23.43Zm-143.2,58.2H164.37V130.38h28.31Zm27.2,0H199.52V130.38h20.36Z" transform="translate(-99.5 -14.12)" fill="#f7f7f7"/><path d="M157.43,130.38H146.81a105.45,105.45,0,0,0-2.95,22.14h13.57Z" transform="translate(-99.5 -14.12)" fill="#2d4059"/><rect x="64.87" y="116.26" width="28.32" height="22.14" fill="#2d4059"/><rect x="100.02" y="116.26" width="20.36" height="22.14" fill="#2d4059"/><rect x="197.69" y="132.47" width="5.93" height="5.93" fill="#2d4059"/><rect x="211.77" y="116.26" width="22.14" height="22.14" fill="#2d4059"/><path d="M340.32,152.52h15a105.45,105.45,0,0,0-3-22.14h-12Z" transform="translate(-99.5 -14.12)" fill="#2d4059"/><path d="M336,94.32h-.13l.05.07Z" transform="translate(-99.5 -14.12)" fill="url(#linear-gradient)"/><path d="M335.88,94.32H292.43A22.74,22.74,0,0,1,269,117.75V156l66.93-61.61Z" transform="translate(-99.5 -14.12)" fill="#f7f7f7"/><path d="M355.3,152.52h-15V130.38h12a105.18,105.18,0,0,0-16.41-36l-.05-.07H292.43A22.74,22.74,0,0,1,269,117.75V156h86.33c0-.19,0-.37,0-.55C355.34,154.47,355.32,153.49,355.3,152.52Zm-52.19,0h-5.92v-5.93h5.92Zm30.3,0H311.27V130.38h22.14Z" transform="translate(-99.5 -14.12)" fill="#e0e0e0"/><circle cx="170" cy="80.27" r="19.5" fill="#494949"/><circle cx="170" cy="80.27" r="16.82" fill="url(#linear-gradient-2)"/><circle cx="165.75" cy="77.03" r="10.19" fill="#fff"/><rect x="64.87" y="116.26" width="28.32" height="22.14" fill="none"/><rect x="100.02" y="116.26" width="20.36" height="22.14" fill="none"/><path d="M257,74.89H181.07a108,108,0,0,0-8.55,8.16h76.76A23.28,23.28,0,0,1,257,74.89Z" transform="translate(-99.5 -14.12)" fill="#f7f7f7"/><path d="M257,74.89H181.07a108,108,0,0,0-8.55,8.16h76.76A23.28,23.28,0,0,1,257,74.89Z" transform="translate(-99.5 -14.12)" fill="#ffb400"/><path d="M289.72,83.05h36.93a106.5,106.5,0,0,0-8.57-8.16H282A23.28,23.28,0,0,1,289.72,83.05Z" transform="translate(-99.5 -14.12)" fill="#f7f7f7"/><path d="M289.72,83.05h36.93a106.5,106.5,0,0,0-8.57-8.16H282A23.28,23.28,0,0,1,289.72,83.05Z" transform="translate(-99.5 -14.12)" fill="#ffb400"/></g></svg>