<svg xmlns="http://www.w3.org/2000/svg" xmlns:xlink="http://www.w3.org/1999/xlink" viewBox="0 0 485.07 472.71"><defs><linearGradient id="linear-gradient" x1="269" y1="94.35" x2="336.01" y2="94.35" gradientUnits="userSpaceOnUse"><stop offset="0" stop-color="#232222"/><stop offset="0" stop-color="#171616"/><stop offset="1" stop-color="#161616"/></linearGradient><linearGradient id="linear-gradient-2" x1="241.03" y1="80.27" x2="274.67" y2="80.27" xlink:href="#linear-gradient"/></defs><title>instaling2</title><g id="Layer_3" data-name="Layer 3"><path d="M474.65,121.11H371.8a13.71,13.71,0,0,0-13.72,13.71h0a13.71,13.71,0,0,0,13.71,13.72h1.5a9.09,9.09,0,0,1,9.09,9.09h0a9.09,9.09,0,0,1-9.09,9.09H340.75a14,14,0,0,0-14.09,13.05,13.72,13.72,0,0,0,13.7,14.38H442.83a14,14,0,0,0,14.09-13.06,13.72,13.72,0,0,0-13.7-14.37h-3.75a9.09,9.09,0,0,1-9.09-9.09h0a9.09,9.09,0,0,1,9.09-9.09h35.18a13.72,13.72,0,0,0,13.72-13.72h0A13.71,13.71,0,0,0,474.65,121.11Z" transform="translate(-11.65 -14.12)" fill="#f2f2f2"/><path d="M115,97.48V94.6a5.36,5.36,0,0,1,5.37-5.36h1.79a5.37,5.37,0,0,0,5.36-5.37V76.71a5.36,5.36,0,0,0-5.36-5.36H65.76a5.36,5.36,0,0,0-5.37,5.36v7.16a5.37,5.37,0,0,0,5.37,5.37H79.62A5.37,5.37,0,0,1,85,94.6v2.88a5.37,5.37,0,0,1-5.37,5.36h0a5.37,5.37,0,0,0-5.37,5.37v6.07a5.38,5.38,0,0,0,5.37,5.37h61a5.37,5.37,0,0,0,5.37-5.37v-6.07a5.36,5.36,0,0,0-5.37-5.37H120.32A5.36,5.36,0,0,1,115,97.48Z" transform="translate(-11.65 -14.12)" fill="#f7f7f7"/><path d="M419.86,58.9h4.61a34.73,34.73,0,0,0-34.74-34.73,35.51,35.51,0,0,0-3.59.18A34.74,34.74,0,0,1,417.2,56.7c.05.73.08,1.46.08,2.2h-4.61v2.83h4.61c0,.57,0,1.12,0,1.68a34.73,34.73,0,0,1-31.09,32.87,35.5,35.5,0,0,0,3.59.19,34.74,34.74,0,0,0,34.74-34.74h-4.61Z" transform="translate(-11.65 -14.12)" fill="#25374c" stroke="#2d4059" stroke-miterlimit="10" stroke-width="0.25"/><rect x="347.96" y="44.78" width="53.07" height="2.83" fill="#253a51" stroke="#2d4059" stroke-miterlimit="10" stroke-width="0.25"/><path d="M412.67,61.73H355c0,.57,0,1.12,0,1.68a34.74,34.74,0,0,0,31.1,32.87,34.73,34.73,0,0,0,31.09-32.87c0-.56,0-1.11,0-1.68Z" transform="translate(-11.65 -14.12)" fill="#2d4059" stroke="#2d4059" stroke-miterlimit="10" stroke-width="0.25"/><path d="M417.2,56.7a34.74,34.74,0,0,0-31.06-32.35A34.73,34.73,0,0,0,355.08,56.7c-.05.73-.08,1.46-.08,2.2h62.28C417.28,58.16,417.25,57.43,417.2,56.7Z" transform="translate(-11.65 -14.12)" fill="#2d4059" stroke="#2d4059" stroke-miterlimit="10" stroke-width="0.25"/><path d="M369.3,46.06a6.28,6.28,0,0,1,12.52-.65c0-.22,0-.44,0-.67a7.61,7.61,0,1,0-7.61,7.6c.23,0,.45,0,.68,0A6.28,6.28,0,0,1,369.3,46.06Z" transform="translate(-11.65 -14.12)" fill="#253a51"/><path d="M381.82,45.41a6.28,6.28,0,1,0-6.89,6.9A7.6,7.6,0,0,0,381.82,45.41Z" transform="translate(-11.65 -14.12)" fill="#1d3144"/><path d="M484.35,352H420a12.6,12.6,0,0,0-12.56,10.34,12.38,12.38,0,0,0,12.21,14.39h0a6.79,6.79,0,0,1,6.79,6.79v6.69a6.79,6.79,0,0,1-6.79,6.79H396.73a12.59,12.59,0,0,0-12.55,10.34,12.37,12.37,0,0,0,12.21,14.39h64.36A12.58,12.58,0,0,0,473.3,411.4,12.38,12.38,0,0,0,461.09,397h0a5.6,5.6,0,0,1-5.59-5.6h0a14.67,14.67,0,0,1,14.67-14.67H484a12.58,12.58,0,0,0,12.55-10.33A12.38,12.38,0,0,0,484.35,352Z" transform="translate(-11.65 -14.12)" fill="#ededed"/><rect x="398.76" y="223.96" width="71.85" height="23.27" rx="9.99" fill="#f7f7f7"/><rect x="409.49" y="285.97" width="56.94" height="19.98" rx="9.99" fill="#f7f7f7"/><rect x="11.18" y="348.13" width="56.35" height="21.58" rx="9.99" fill="#f7f7f7"/><path d="M103.21,228.76V223a6.94,6.94,0,0,0-6.94-6.93H32.89A6.93,6.93,0,0,0,26,223v5.78a6.94,6.94,0,0,0,6.93,6.94H37.5a6.93,6.93,0,0,1,6.93,6.93v5.78a6.93,6.93,0,0,1-6.93,6.93H18.58a6.93,6.93,0,0,0-6.93,6.93v4.49a6.94,6.94,0,0,0,6.93,6.94H84.32a6.94,6.94,0,0,0,6.93-6.94v-4.49a6.93,6.93,0,0,0-6.93-6.93h0a6.93,6.93,0,0,1-6.93-6.93v-5.78a6.93,6.93,0,0,1,6.93-6.93h12A6.94,6.94,0,0,0,103.21,228.76Z" transform="translate(-11.65 -14.12)" fill="#f7f7f7"/><ellipse cx="237.69" cy="451.38" rx="150" ry="21.33" fill="#f7f7f7"/><path d="M-62.59,218.7" transform="translate(-11.65 -14.12)" fill="#f7f7f7"/></g><g id="Layer_2" data-name="Layer 2"><rect x="206.39" y="2.67" width="1.85" height="44.72" fill="#2d4059"/><circle cx="207.31" cy="2.67" r="2.67" fill="#ffb400"/></g><g id="Layer_1" data-name="Layer 1"><path d="M278.9,176.39A150,150,0,1,0,249.5,473.5h0V176.39Z" transform="translate(-11.65 -14.12)" fill="#f4f4f4"/><path d="M399.5,323.5A150,150,0,0,0,278.9,176.39H249.53V473.5A150,150,0,0,0,399.5,323.5Z" transform="translate(-11.65 -14.12)" fill="#e8e8e8"/><line x1="387.85" y1="309.38" x2="328.68" y2="309.38" fill="#2d4059" stroke="#fff" stroke-miterlimit="10" stroke-width="6"/><line x1="237.85" y1="459.38" x2="237.85" y2="400.2" fill="#2d4059" stroke="#fff" stroke-miterlimit="10" stroke-width="6"/><line x1="87.85" y1="309.38" x2="147.03" y2="309.38" fill="#2d4059" stroke="#fff" stroke-miterlimit="10" stroke-width="6"/><line x1="237.85" y1="159.38" x2="237.85" y2="218.56" fill="#2d4059" stroke="#fff" stroke-miterlimit="10" stroke-width="6"/><line x1="363.35" y1="81.88" x2="333.34" y2="81.88" fill="none"/><line x1="142.36" y1="81.88" x2="118.35" y2="81.88" fill="none"/><polygon points="327.65 162.88 148.06 162.88 132.35 141.88 343.35 141.88 327.65 162.88" fill="#efefef"/><circle cx="237.85" cy="309.38" r="90.82" fill="#ffb400"/><circle cx="237.82" cy="309.36" r="64.83" fill="#e8e8e8"/><polygon points="281.35 317.6 281.35 302.16 311.35 299.88 311.35 319.88 281.35 317.6" fill="#ffb400"/><polygon points="229.63 352.88 245.08 352.88 247.35 382.88 227.35 382.88 229.63 352.88" fill="#ffb400"/><path d="M242.28,280l-.51-6.64a50.19,50.19,0,0,0-42.25,41.42l6.48.5v15.44l-6.48.5A50.16,50.16,0,1,0,258.2,273.7l-.48,6.3Z" transform="translate(-11.65 -14.12)" fill="none"/><polygon points="228.35 235.88 229.14 246.28 230.13 259.24 230.63 265.88 246.08 265.88 246.56 259.57 247.54 246.56 248.35 235.88 228.35 235.88" fill="#ffb400"/><polygon points="187.87 300.66 174.88 299.68 164.35 298.88 164.35 318.88 174.88 318.08 187.87 317.1 194.35 316.6 194.35 301.16 187.87 300.66" fill="#ffb400"/><path d="M187.51,312.27l13,1a50.22,50.22,0,0,1,39.7-38.91l-1-13A63.18,63.18,0,0,0,187.51,312.27Z" transform="translate(-11.65 -14.12)" fill="#2d4059"/><circle cx="237.85" cy="309.38" r="28.5" fill="none" stroke="#ccc" stroke-miterlimit="10" stroke-width="2"/><circle cx="237.85" cy="309.38" r="28.5" fill="none" stroke="#ccc" stroke-miterlimit="10" stroke-width="2"/><circle cx="237.35" cy="309.38" r="15.1" fill="none" stroke="#ccc" stroke-miterlimit="10" stroke-width="2"/><path d="M311.73,335" transform="translate(-11.65 -14.12)" fill="#e8e8e8"/><path d="M352.3,383.83" transform="translate(-11.65 -14.12)" fill="#e8e8e8"/><path d="M272,331.8l-3.16-.26-3.17-.25-2.45-.2L262.1,331l-1.11-.09h0a14.09,14.09,0,0,1-25-12.86l.06-.11.09-.19.42-.93L222.82,311l-.48,1.07-.13.3a29.45,29.45,0,0,0,35.22,39.84l2.72,33.68A63.18,63.18,0,0,0,311.9,335Z" transform="translate(-11.65 -14.12)" fill="#2d4059"/><circle cx="284.39" cy="197.1" r="5.2" fill="#2d4059"/><circle cx="350.01" cy="263.24" r="5.2" fill="#2d4059"/><circle cx="349.64" cy="356.42" r="5.2" fill="#2d4059"/><circle cx="283.49" cy="422.04" r="5.2" fill="#2d4059"/><circle cx="190.32" cy="421.66" r="5.2" fill="#2d4059"/><circle cx="124.7" cy="355.51" r="5.2" fill="#2d4059"/><circle cx="125.07" cy="262.34" r="5.2" fill="#2d4059"/><circle cx="191.22" cy="196.72" r="5.2" fill="#2d4059"/><path d="M335.88,94.32a107.42,107.42,0,0,0-9.23-11.27H289.72A23.28,23.28,0,0,0,282,74.89h36a105.68,105.68,0,0,0-137,0H257a23.28,23.28,0,0,0-7.68,8.16H172.52a105.63,105.63,0,0,0-25.71,47.33h10.62v22.14H143.86c0,1,0,1.95,0,2.93,0,.18,0,.36,0,.55H269V117.75a22.74,22.74,0,0,0,23.43-23.43Zm-143.2,58.2H164.37V130.38h28.31Zm27.2,0H199.52V130.38h20.36Z" transform="translate(-11.65 -14.12)" fill="#f7f7f7"/><path d="M157.43,130.38H146.81a105.45,105.45,0,0,0-2.95,22.14h13.57Z" transform="translate(-11.65 -14.12)" fill="#2d4059"/><rect x="152.72" y="116.26" width="28.32" height="22.14" fill="#2d4059"/><rect x="187.87" y="116.26" width="20.36" height="22.14" fill="#2d4059"/><rect x="285.54" y="132.47" width="5.93" height="5.93" fill="#2d4059"/><rect x="299.63" y="116.26" width="22.14" height="22.14" fill="#2d4059"/><path d="M340.32,152.52h15a105.45,105.45,0,0,0-3-22.14h-12Z" transform="translate(-11.65 -14.12)" fill="#2d4059"/><path d="M336,94.32h-.13l.05.07Z" transform="translate(-11.65 -14.12)" fill="url(#linear-gradient)"/><path d="M335.88,94.32H292.43A22.74,22.74,0,0,1,269,117.75V156l66.93-61.61Z" transform="translate(-11.65 -14.12)" fill="#f7f7f7"/><path d="M355.3,152.52h-15V130.38h12a105.18,105.18,0,0,0-16.41-36l-.05-.07H292.43A22.74,22.74,0,0,1,269,117.75V156h86.33c0-.19,0-.37,0-.55C355.34,154.47,355.32,153.49,355.3,152.52Zm-52.19,0h-5.92v-5.93h5.92Zm30.3,0H311.27V130.38h22.14Z" transform="translate(-11.65 -14.12)" fill="#e0e0e0"/><circle cx="257.85" cy="80.27" r="19.5" fill="#494949"/><circle cx="257.85" cy="80.27" r="16.82" fill="url(#linear-gradient-2)"/><circle cx="253.6" cy="77.03" r="10.19" fill="#fff"/><rect x="152.72" y="116.26" width="28.32" height="22.14" fill="none"/><rect x="187.87" y="116.26" width="20.36" height="22.14" fill="none"/><path d="M257,74.89H181.07a108,108,0,0,0-8.55,8.16h76.76A23.28,23.28,0,0,1,257,74.89Z" transform="translate(-11.65 -14.12)" fill="#f7f7f7"/><path d="M257,74.89H181.07a108,108,0,0,0-8.55,8.16h76.76A23.28,23.28,0,0,1,257,74.89Z" transform="translate(-11.65 -14.12)" fill="#ffb400"/><path d="M289.72,83.05h36.93a106.5,106.5,0,0,0-8.57-8.16H282A23.28,23.28,0,0,1,289.72,83.05Z" transform="translate(-11.65 -14.12)" fill="#f7f7f7"/><path d="M289.72,83.05h36.93a106.5,106.5,0,0,0-8.57-8.16H282A23.28,23.28,0,0,1,289.72,83.05Z" transform="translate(-11.65 -14.12)" fill="#ffb400"/></g></svg>