<svg id="Layer_1" data-name="Layer 1" xmlns="http://www.w3.org/2000/svg" xmlns:xlink="http://www.w3.org/1999/xlink" viewBox="0 0 485.07 472.71"><defs><linearGradient id="linear-gradient" x1="269" y1="379.65" x2="336.01" y2="379.65" gradientTransform="matrix(1, 0, 0, -1, -11.65, 459.88)" gradientUnits="userSpaceOnUse"><stop offset="0" stop-color="#232222"/><stop offset="0" stop-color="#171616"/><stop offset="1" stop-color="#161616"/></linearGradient><linearGradient id="linear-gradient-2" x1="241.03" y1="393.73" x2="274.67" y2="393.73" gradientTransform="matrix(1, 0, 0, -1, 0, 474)" xlink:href="#linear-gradient"/></defs><title>SVG0</title><g id="Layer_3" data-name="Layer 3"><path d="M463,107H360.15a13.71,13.71,0,0,0-13.72,13.7h0a13.71,13.71,0,0,0,13.7,13.72h1.51a9.09,9.09,0,0,1,9.09,9.09h0a9.09,9.09,0,0,1-9.09,9.09H329.1A14,14,0,0,0,315,165.65a13.72,13.72,0,0,0,13,14.36l.66,0H431.18A14,14,0,0,0,445.27,167a13.71,13.71,0,0,0-13-14.35l-.65,0h-3.75a9.09,9.09,0,0,1-9.09-9.09h0a9.09,9.09,0,0,1,9.09-9.09H463a13.72,13.72,0,0,0,13.72-13.72h0A13.71,13.71,0,0,0,463,107Z" fill="#f2f2f2"/><path d="M103.35,83.36V80.48a5.36,5.36,0,0,1,5.36-5.36h1.8a5.38,5.38,0,0,0,5.36-5.37V62.59a5.36,5.36,0,0,0-5.36-5.36H54.11a5.36,5.36,0,0,0-5.37,5.35h0v7.16a5.36,5.36,0,0,0,5.37,5.37H68a5.36,5.36,0,0,1,5.38,5.36h0v2.88A5.38,5.38,0,0,1,68,88.72h0a5.36,5.36,0,0,0-5.37,5.37h0v6.07A5.39,5.39,0,0,0,68,105.53h61a5.36,5.36,0,0,0,5.37-5.37V94.09A5.36,5.36,0,0,0,129,88.72H108.67A5.36,5.36,0,0,1,103.35,83.36Z" fill="#f7f7f7"/><path d="M408.21,44.78h4.61a34.73,34.73,0,0,0-34.73-34.73h0a35.81,35.81,0,0,0-3.59.18,34.73,34.73,0,0,1,31.06,32.35c.05.73.08,1.46.08,2.2H401v2.83h4.61v1.68a34.73,34.73,0,0,1-31.09,32.87,35.82,35.82,0,0,0,3.59.19,34.74,34.74,0,0,0,34.74-34.74h-4.61Z" fill="#2947a8"/><rect x="347.96" y="44.78" width="53.07" height="2.83" fill="#2947a8"/><path d="M401,47.61H343.35v1.68a34.74,34.74,0,0,0,31.1,32.87,34.73,34.73,0,0,0,31.09-32.87V47.61Z" fill="#4d6feb"/><path d="M405.55,42.58a34.73,34.73,0,0,0-31.06-32.35,34.73,34.73,0,0,0-31.06,32.35c-.05.73-.08,1.46-.08,2.2h62.28C405.63,44,405.6,43.31,405.55,42.58Z" fill="#4d6feb"/><path d="M357.65,31.94a6.28,6.28,0,0,1,12.52-.65v-.67a7.61,7.61,0,1,0-7.62,7.6h.69A6.27,6.27,0,0,1,357.65,31.94Z" fill="#5372f1"/><path d="M370.17,31.29a6.28,6.28,0,1,0-6.89,6.9A7.6,7.6,0,0,0,370.17,31.29Z" fill="#1d3144"/><path d="M472.7,337.88H408.35a12.6,12.6,0,0,0-12.56,10.34A12.38,12.38,0,0,0,406,362.45a13.37,13.37,0,0,0,2,.16h0a6.79,6.79,0,0,1,6.79,6.79h0v6.69a6.79,6.79,0,0,1-6.79,6.79H385.08a12.59,12.59,0,0,0-12.55,10.34,12.36,12.36,0,0,0,10.18,14.22,12.54,12.54,0,0,0,2,.17H449.1a12.59,12.59,0,0,0,12.55-10.33,12.4,12.4,0,0,0-12.21-14.4h0a5.6,5.6,0,0,1-5.59-5.6h0a14.67,14.67,0,0,1,14.67-14.67h13.83a12.59,12.59,0,0,0,12.55-10.33,12.4,12.4,0,0,0-12.2-14.4Z" fill="#ededed"/><rect x="398.76" y="223.96" width="71.85" height="23.27" rx="9.99" fill="#f7f7f7"/><rect x="409.49" y="285.97" width="56.94" height="19.98" rx="9.99" fill="#f7f7f7"/><rect x="11.18" y="348.13" width="56.35" height="21.58" rx="9.99" fill="#f7f7f7"/><path d="M91.56,214.64v-5.76A6.94,6.94,0,0,0,84.62,202H21.24a6.93,6.93,0,0,0-6.89,6.93v5.78a6.94,6.94,0,0,0,6.93,6.94h4.57a6.93,6.93,0,0,1,6.93,6.93v5.78a6.93,6.93,0,0,1-6.93,6.93H6.93A6.93,6.93,0,0,0,0,248.17v4.49a6.94,6.94,0,0,0,6.93,6.94H72.67a6.94,6.94,0,0,0,6.93-6.94v-4.49a6.93,6.93,0,0,0-6.93-6.93h0a6.93,6.93,0,0,1-6.93-6.93v-5.78a6.93,6.93,0,0,1,6.93-6.93h12A6.94,6.94,0,0,0,91.56,214.64Z" fill="#f7f7f7"/><ellipse cx="237.69" cy="451.38" rx="150" ry="21.33" fill="#f7f7f7"/><path d="M-74.24,204.58" fill="#f7f7f7"/></g><g id="Layer_2" data-name="Layer 2"><rect x="206.39" y="2.67" width="1.85" height="44.72" fill="#2d4059"/><circle cx="207.31" cy="2.67" r="2.67" fill="#ffb400"/></g><g id="Layer_1-2" data-name="Layer 1"><path d="M267.25,162.27a150,150,0,1,0-29.4,297.11h0V162.27Z" fill="#f4f4f4"/><path d="M387.85,309.38a150,150,0,0,0-120.6-147.11H237.88V459.38A150,150,0,0,0,387.85,309.38Z" fill="#e8e8e8"/><line x1="387.85" y1="309.38" x2="328.68" y2="309.38" fill="none" stroke="#fff" stroke-miterlimit="10" stroke-width="6"/><line x1="237.85" y1="459.38" x2="237.85" y2="400.2" fill="none" stroke="#fff" stroke-miterlimit="10" stroke-width="6"/><line x1="87.85" y1="309.38" x2="147.03" y2="309.38" fill="none" stroke="#fff" stroke-miterlimit="10" stroke-width="6"/><line x1="237.85" y1="159.38" x2="237.85" y2="218.56" fill="none" stroke="#fff" stroke-miterlimit="10" stroke-width="6"/><line x1="363.35" y1="81.88" x2="333.34" y2="81.88" fill="none"/><line x1="142.36" y1="81.88" x2="118.35" y2="81.88" fill="none"/><polygon points="327.65 162.88 148.06 162.88 132.35 141.88 343.35 141.88 327.65 162.88" fill="#efefef"/><circle cx="237.85" cy="309.38" r="90.82" fill="#ffb400"/><circle cx="237.82" cy="309.36" r="64.83" fill="#e8e8e8"/><polygon points="281.35 317.6 281.35 302.16 311.35 299.88 311.35 319.88 281.35 317.6" fill="#ffb400"/><polygon points="229.63 352.88 245.08 352.88 247.35 382.88 227.35 382.88 229.63 352.88" fill="#ffb400"/><path d="M230.63,265.88l-.51-6.64a50.19,50.19,0,0,0-42.25,41.42l6.48.5V316.6l-6.48.5a50.16,50.16,0,1,0,58.68-57.52l-.48,6.3Z" fill="none"/><path d="M247.54,246.56l.81-10.68h-20l.79,10.4A62.36,62.36,0,0,1,247.54,246.56Z" fill="#ffb400"/><path d="M230.12,259.24l.51,6.64h15.44l.48-6.3a50,50,0,0,0-16.43-.34Z" fill="#ffb400"/><path d="M194.35,301.16l-6.48-.5a49.84,49.84,0,0,0,0,16.44l6.48-.5Z" fill="#ffb400"/><path d="M174.87,299.68l-10.52-.8v20l10.52-.8a63.73,63.73,0,0,1,0-18.4Z" fill="#ffb400"/><path d="M237.35,258.72a49.77,49.77,0,0,1,9.2.86l1-13a62.36,62.36,0,0,0-18.4-.28l1,13A51,51,0,0,1,237.35,258.72Z" fill="#ffb400"/><path d="M187.19,308.88a50.37,50.37,0,0,1,.68-8.22l-13-1a63.73,63.73,0,0,0,0,18.4l13-1A49.8,49.8,0,0,1,187.19,308.88Z" fill="#ffb400"/><path d="M175.86,298.15l13,1a50.22,50.22,0,0,1,39.7-38.91l-1-13A63.19,63.19,0,0,0,175.86,298.15Z" fill="#5571ef"/><circle cx="237.85" cy="309.38" r="28.5" fill="none" stroke="#ccc" stroke-miterlimit="10" stroke-width="2"/><circle cx="237.85" cy="309.38" r="28.5" fill="none" stroke="#ccc" stroke-miterlimit="10" stroke-width="2"/><circle cx="237.35" cy="309.38" r="15.1" fill="none" stroke="#ccc" stroke-miterlimit="10" stroke-width="2"/><path d="M300.08,320.88" fill="#e8e8e8"/><path d="M340.65,369.71" fill="#e8e8e8"/><path d="M260.35,317.68l-3.16-.26-3.17-.25-2.45-.2-1.12-.09-1.11-.09h0a14.09,14.09,0,0,1-25-12.86l.06-.11.09-.19.42-.93-13.74-5.82-.48,1.07-.13.3a29.45,29.45,0,0,0,35.22,39.84l2.72,33.68a63.17,63.17,0,0,0,51.75-50.89Z" fill="#5571ef"/><circle cx="284.39" cy="197.1" r="5.2" fill="#2947a8"/><circle cx="350.01" cy="263.24" r="5.2" fill="#2947a8"/><circle cx="349.64" cy="356.42" r="5.2" fill="#2947a8"/><circle cx="283.49" cy="422.04" r="5.2" fill="#2947a8"/><circle cx="190.32" cy="421.66" r="5.2" fill="#2947a8"/><circle cx="124.7" cy="355.51" r="5.2" fill="#2947a8"/><circle cx="125.07" cy="262.34" r="5.2" transform="translate(-25.24 13.6) rotate(-5.65)" fill="#2947a8"/><circle cx="191.22" cy="196.72" r="5.2" fill="#2947a8"/><path d="M324.23,80.2A107.19,107.19,0,0,0,315,68.93H278.07a23.3,23.3,0,0,0-7.72-8.16h36a105.68,105.68,0,0,0-137,0h76a23.27,23.27,0,0,0-7.68,8.16h-76.8a105.65,105.65,0,0,0-25.71,47.33h10.62V138.4H132.21v3.48H257.35V103.63a22.75,22.75,0,0,0,23.43-22c0-.47,0-.93,0-1.4ZM181,138.4H152.72V116.26H181Zm27.2,0H187.87V116.26h20.36Z" fill="#f7f7f7"/><path d="M145.78,116.26H135.16a105.94,105.94,0,0,0-2.95,22.14h13.57Z" fill="#4e72f2"/><rect x="152.72" y="116.26" width="28.32" height="22.14" fill="#4e72f2"/><rect x="187.87" y="116.26" width="20.36" height="22.14" fill="#4e72f2"/><rect x="285.54" y="132.47" width="5.93" height="5.93" fill="#4e72f2"/><rect x="299.63" y="116.26" width="22.14" height="22.14" fill="#4e72f2"/><path d="M328.67,138.4h15a105.26,105.26,0,0,0-3-22.14h-12Z" fill="#4e72f2"/><path d="M324.35,80.2h-.13l0,.07Z" fill="url(#linear-gradient)"/><path d="M324.23,80.2H280.78a22.75,22.75,0,0,1-22,23.43c-.47,0-.93,0-1.4,0v38.25l66.93-61.61Z" fill="#f7f7f7"/><path d="M343.65,138.4h-15V116.26h12a105,105,0,0,0-16.41-36l-.05-.07H280.78a22.75,22.75,0,0,1-22,23.44q-.7,0-1.41,0v38.25h86.33v-.55C343.69,140.35,343.67,139.37,343.65,138.4Zm-52.19,0h-5.92v-5.93h5.92Zm30.3,0H299.62V116.26h22.14Z" fill="#e0e0e0"/><circle cx="257.85" cy="80.27" r="19.5" fill="#494949"/><circle cx="257.85" cy="80.27" r="16.82" fill="url(#linear-gradient-2)"/><circle cx="253.6" cy="77.03" r="10.19" fill="#fff"/><rect x="152.72" y="116.26" width="28.32" height="22.14" fill="none"/><rect x="187.87" y="116.26" width="20.36" height="22.14" fill="none"/><path d="M245.35,60.77H169.42a108,108,0,0,0-8.55,8.16h76.76A23.3,23.3,0,0,1,245.35,60.77Z" fill="#f7f7f7"/><path d="M245.35,60.77H169.42a108,108,0,0,0-8.55,8.16h76.76A23.3,23.3,0,0,1,245.35,60.77Z" fill="#ffb400"/><path d="M278.07,68.93H315a104.85,104.85,0,0,0-8.57-8.16H270.35A23.3,23.3,0,0,1,278.07,68.93Z" fill="#f7f7f7"/><path d="M278.07,68.93H315a104.85,104.85,0,0,0-8.57-8.16H270.35A23.3,23.3,0,0,1,278.07,68.93Z" fill="#ffb400"/></g></svg>