<svg xmlns="http://www.w3.org/2000/svg" viewBox="0 0 433.3 263"><title>SVG1</title><g id="Layer_1" data-name="Layer 1"><path d="M433.28,114.28A17.78,17.78,0,0,0,415.5,96.5H17.78A17.78,17.78,0,0,0,0,114.28V253.5H13v-18H424v18h9.28Z" fill="#fff"/><rect x="134.64" y="115" width="170" height="110" rx="12.1" fill="#353535"/><rect x="134.64" y="110" width="170" height="110" rx="12.1" fill="#515151"/><rect x="134.64" width="170" height="110" rx="12.1" fill="#565656"/><path d="M149.53,13.79H289.75a6.65,6.65,0,0,1,6.64,6.63V91.23a4,4,0,0,1-4,4H146.87a4,4,0,0,1-4-4V20.42a6.64,6.64,0,0,1,6.65-6.63Z" fill="#fff"/><path d="M145.79,13.79h147.7a2.89,2.89,0,0,1,2.9,2.88h0v4.59H142.89V16.68a2.89,2.89,0,0,1,2.89-2.89Z" fill="#e5e5e5"/><circle cx="292.5" cy="17.53" r="2.54" fill="#5371f0"/><circle cx="278.01" cy="17.53" r="2.54" fill="#ff4c31"/><circle cx="285.26" cy="17.53" r="2.54" fill="#ff9100"/><path d="M174.49,38.56A.48.48,0,0,1,175,39a.5.5,0,0,1-1,0h0A.48.48,0,0,1,174.49,38.56Zm.34,1.95v3.88h-.68V40.51Z" fill="#0d2349"/><path d="M176.1,40.51h.67v.42a1.37,1.37,0,0,1,1.12-.54,1.32,1.32,0,0,1,1.11.53,1.82,1.82,0,0,1,.23,1v2.43h-.68V42a1.14,1.14,0,0,0-.18-.72.76.76,0,0,0-.63-.28.85.85,0,0,0-.68.3,1.7,1.7,0,0,0-.29,1v2h-.67Z" fill="#0d2349"/><path d="M182.1,41.41a.6.6,0,0,0-.54-.4.43.43,0,0,0-.47.39v.05c0,.28.19.37.63.56a2.34,2.34,0,0,1,.93.59,1,1,0,0,1,.21.63,1.24,1.24,0,0,1-1.19,1.28h-.15a1.38,1.38,0,0,1-1.36-1l.58-.24a.89.89,0,0,0,.79.64.59.59,0,0,0,.63-.55h0v-.06c0-.37-.27-.49-.63-.65a2.53,2.53,0,0,1-.94-.57.88.88,0,0,1-.18-.57,1,1,0,0,1,1-1.09h.13a1.1,1.1,0,0,1,1.06.71Z" fill="#0d2349"/><path d="M184.49,41.13v3.26h-.68V41.13h-.41v-.62h.41V39.1h.68v1.41h.67v.62Z" fill="#0d2349"/><path d="M188.75,40.51h.68v3.88h-.68v-.54a1.6,1.6,0,0,1-1.32.65,2,2,0,1,1,0-4.09,1.6,1.6,0,0,1,1.32.65Zm-2.52,1.94a1.3,1.3,0,0,0,1.13,1.45h.14a1.45,1.45,0,0,0,0-2.9,1.29,1.29,0,0,0-1.26,1.32h0v.12Z" fill="#0d2349"/><path d="M191.39,37.57v6.82h-.67V37.57Z" fill="#0d2349"/><path d="M193,38.56a.47.47,0,0,1,.45.49v0a.48.48,0,0,1-.95,0,.47.47,0,0,1,.44-.5H193Zm.34,1.95v3.88h-.67V40.51Z" fill="#0d2349"/><path d="M194.61,40.51h.7v.42a1.34,1.34,0,0,1,1.11-.54,1.3,1.3,0,0,1,1.11.53,1.67,1.67,0,0,1,.23,1v2.43h-.68V42a1.22,1.22,0,0,0-.17-.72.8.8,0,0,0-.64-.28.85.85,0,0,0-.68.3,1.62,1.62,0,0,0-.28,1v2h-.68Z" fill="#0d2349"/><path d="M202,40.51h.67v3.74a2.41,2.41,0,0,1-.37,1.53,2.06,2.06,0,0,1-2.9.22l0,0a1.76,1.76,0,0,1-.51-1.25h.67a1.16,1.16,0,0,0,1.14,1.18h.09a1.1,1.1,0,0,0,1-.54,1.84,1.84,0,0,0,.22-1V43.8a1.65,1.65,0,0,1-1.33.66,1.83,1.83,0,0,1-1.33-.53,2.05,2.05,0,0,1-.56-1.53,2,2,0,0,1,.56-1.51,1.89,1.89,0,0,1,1.33-.52A1.63,1.63,0,0,1,202,41Zm-2.14.87a1.47,1.47,0,0,0-.39,1.07,1.52,1.52,0,0,0,.44,1.14,1.22,1.22,0,0,0,.83.32,1.19,1.19,0,0,0,.86-.33,1.59,1.59,0,0,0,.44-1.13,1.52,1.52,0,0,0-.42-1.09,1.26,1.26,0,0,0-1.76,0Z" fill="#0d2349"/><path d="M205.23,38.12a2.33,2.33,0,0,1,1.43.39,1.58,1.58,0,0,1,.56,1.3A1.38,1.38,0,0,1,206.6,41a1.55,1.55,0,0,1,1.19,1.57,1.73,1.73,0,0,1-.64,1.35,2.2,2.2,0,0,1-1.49.41H204.1V38.12Zm-.43,2.81h.52c.37,0,1.23-.08,1.23-1s-1-1-1.21-1h-.54Zm0,2.81h.8a1.78,1.78,0,0,0,1.1-.27,1,1,0,0,0,.41-.86,1,1,0,0,0-.54-.93,2.15,2.15,0,0,0-1-.19h-.71Z" fill="#0d2349"/><path d="M208.65,42.46a2.06,2.06,0,1,1,2.12,2h0a2,2,0,0,1-2.06-1.92Zm.69,0a1.37,1.37,0,0,0,1.45,1.28,1.35,1.35,0,0,0,1.28-1.42v0a1.36,1.36,0,0,0-1.36-1.3,1.34,1.34,0,0,0-1.37,1.33h0Z" fill="#0d2349"/><path d="M214.49,41.13v3.26h-.67V41.13h-.41v-.62h.41V39.1h.67v1.41h.68v.62Z" fill="#0d2349"/><path d="M218.32,38.56a.47.47,0,0,1,.48.48.5.5,0,1,1-1,0h0a.47.47,0,0,1,.48-.48Zm.34,1.95v3.88H218V40.51Z" fill="#0d2349"/><path d="M221.51,41.41A.58.58,0,0,0,221,41a.43.43,0,0,0-.47.39v0c0,.28.19.37.63.56a2.34,2.34,0,0,1,.93.59.91.91,0,0,1,.21.63,1.24,1.24,0,0,1-1.19,1.28H221a1.37,1.37,0,0,1-1.29-1l.58-.24a.89.89,0,0,0,.79.64.59.59,0,0,0,.63-.55h0v-.06c0-.37-.26-.49-.62-.65a2.53,2.53,0,0,1-.94-.57.83.83,0,0,1-.18-.57,1,1,0,0,1,1-1.09H221a1.12,1.12,0,0,1,1.07.71Z" fill="#0d2349"/><path d="M206.61,53.94V51.45H207l1.52,1.65V51.45H209v2.49h-.34l-1.52-1.67v1.67Z" fill="#ff9100"/><path d="M210,51.45v2.49h-.48V51.45Z" fill="#ff9100"/><path d="M212,51.87h-1v.55h.86v.42H211v.69h1v.41h-1.39V51.45H212Z" fill="#ff9100"/><path d="M213.67,52a.52.52,0,0,0-.41-.21c-.27,0-.34.16-.34.29a.28.28,0,0,0,.07.17.69.69,0,0,0,.3.14,1.37,1.37,0,0,1,.51.26.73.73,0,0,1,.22.52.81.81,0,0,1-.8.82h-.08a1,1,0,0,1-.86-.46l.32-.3a.57.57,0,0,0,.53.32.33.33,0,0,0,.38-.27v0h0a.32.32,0,0,0-.09-.23,1.13,1.13,0,0,0-.39-.17,1.41,1.41,0,0,1-.42-.22.63.63,0,0,1-.2-.47.72.72,0,0,1,.71-.73h.1a1,1,0,0,1,.7.29Z" fill="#ff9100"/><path d="M215.9,53.41h-1l-.22.53h-.52l1.06-2.49h.39l1,2.49h-.53Zm-.14-.39-.36-.93L215,53Z" fill="#ff9100"/><path d="M217.25,51.45h.36l.66,1.58.69-1.58h.35l.42,2.49h-.49L219,52.4l-.66,1.54h-.17l-.64-1.54-.26,1.54h-.45Z" fill="#ff9100"/><path d="M222.72,52.69a1.34,1.34,0,1,1-1.38-1.3h0a1.27,1.27,0,0,1,1.33,1.2Zm-.51,0a.83.83,0,1,0-.82.86.8.8,0,0,0,.83-.77h0A.22.22,0,0,0,222.21,52.69Z" fill="#ff9100"/><path d="M224.17,53.94h-.37l-.87-2.49h.52l.56,1.69.61-1.72h.27l.57,1.72.6-1.69h.52l-.94,2.49h-.38l-.56-1.58Z" fill="#ff9100"/><path d="M227.36,51.45v2.49h-.49V51.45Z" fill="#ff9100"/><path d="M228.72,51.87v2.07h-.49V51.87h-.56v-.42h1.61v.42Z" fill="#ff9100"/><path d="M230.26,52.8l-.85-1.35H230l.54.86.54-.86h.57l-.88,1.35v1.14h-.49Z" fill="#ff9100"/><path d="M189.22,58.71h60.84a5.17,5.17,0,0,1,5.15,5.15h0A5.16,5.16,0,0,1,250.06,69H189.22a5.17,5.17,0,0,1-5.15-5.15h0A5.16,5.16,0,0,1,189.22,58.71Z" fill="#ededed"/><path d="M189.22,73.69h60.84a5.15,5.15,0,0,1,5.15,5.14h0A5.16,5.16,0,0,1,250.08,84H189.22a5.16,5.16,0,0,1-5.15-5.15h0a5.16,5.16,0,0,1,5.14-5.16Z" fill="#ededed"/><rect x="223.31" y="43.87" width="39.28" height="0.57" rx="0.28" fill="#0d2349"/><path d="M207,27.58a.38.38,0,0,1,.38.38h0a.38.38,0,0,1-.76.12.24.24,0,0,1,0-.12.38.38,0,0,1,.37-.39h0Zm.27,1.56v3.1h-.54v-3.1Z"/><path d="M208.31,29.14h.54v.36a1.08,1.08,0,0,1,.89-.44,1,1,0,0,1,.93.43,1.34,1.34,0,0,1,.18.83V32.2h-.57V30.32a1,1,0,0,0-.15-.57.6.6,0,0,0-.5-.22.69.69,0,0,0-.55.24,1.29,1.29,0,0,0-.22.85v1.61h-.54Z"/><path d="M213.09,29.86a.49.49,0,0,0-.44-.32.34.34,0,0,0-.37.31h0c0,.23.15.29.51.44a2,2,0,0,1,.78.48.79.79,0,0,1,.16.51,1,1,0,0,1-1,1h-.1a1.12,1.12,0,0,1-1.06-.77l.46-.2a.72.72,0,0,0,.63.52.48.48,0,0,0,.51-.45h0c0-.29-.21-.39-.5-.51a2.28,2.28,0,0,1-.76-.46.68.68,0,0,1-.14-.46.84.84,0,0,1,.81-.88h.12a.94.94,0,0,1,.86.56Z"/><path d="M215,29.63v2.61h-.55V29.63h-.32v-.49h.32V28H215v1.13h.53v.49Z"/><path d="M218.44,29.14H219v3.1h-.54v-.43a1.33,1.33,0,0,1-1.06.53,1.66,1.66,0,0,1-1.46-1.82,1.64,1.64,0,0,1,1.46-1.46,1.27,1.27,0,0,1,1.06.52Zm-2,1.55a1,1,0,0,0,.82,1.15h.2a1.17,1.17,0,0,0,0-2.31,1.05,1.05,0,0,0-1,1.05.34.34,0,0,0,0,.1Z"/><path d="M220.34,31.57a.38.38,0,1,1,0,.75h0a.38.38,0,0,1-.37-.38A.39.39,0,0,1,220.34,31.57Z"/><path d="M222.25,26.79v5.45h-.54V26.79Z" fill="#ff9100"/><path d="M223.53,27.58a.38.38,0,0,1,.39.37v0h0a.38.38,0,0,1-.38.38h0a.39.39,0,0,1,0-.77Zm.27,1.56v3.1h-.53v-3.1Z" fill="#ff9100"/><path d="M224.83,29.14h.53v.36a1.1,1.1,0,0,1,.93-.44,1.07,1.07,0,0,1,.89.43,1.34,1.34,0,0,1,.18.83V32.2h-.54V30.32a1,1,0,0,0-.14-.57.62.62,0,0,0-.51-.22.69.69,0,0,0-.55.24,1.29,1.29,0,0,0-.22.85v1.61h-.54Z" fill="#ff9100"/><path d="M230.72,29.14h.54v3a1.88,1.88,0,0,1-.3,1.22,1.53,1.53,0,0,1-1.24.58,1.5,1.5,0,0,1-1.1-.43,1.38,1.38,0,0,1-.42-1h.54a.92.92,0,0,0,.83,1,.49.49,0,0,0,.17,0,.88.88,0,0,0,.82-.44,1.29,1.29,0,0,0,.17-.79v-.45a1.33,1.33,0,0,1-1.06.53,1.56,1.56,0,0,1-1.06-.42,1.69,1.69,0,0,1-.45-1.23,1.65,1.65,0,0,1,.45-1.21,1.56,1.56,0,0,1,1.06-.42,1.27,1.27,0,0,1,1.06.52Zm-1.7.7a1.32,1.32,0,0,0,0,1.76,1,1,0,0,0,1.35,0,1.4,1.4,0,0,0,0-1.82,1,1,0,0,0-.7-.28.9.9,0,0,0-.68.34Z" fill="#ff9100"/><path d="M211.05,78.14a.58.58,0,0,0-.18-.23.52.52,0,0,0-.36-.11.48.48,0,0,0-.52.44h0a.36.36,0,0,0,.12.27,1.12,1.12,0,0,0,.33.2l.3.13a1.32,1.32,0,0,1,.48.29.76.76,0,0,1,.22.57.94.94,0,0,1-.93.94h0a.94.94,0,0,1-.68-.25,1.12,1.12,0,0,1-.29-.56l.33-.09a.83.83,0,0,0,.19.4.58.58,0,0,0,.45.17.61.61,0,0,0,.63-.55v-.07a.48.48,0,0,0-.15-.36,1.79,1.79,0,0,0-.38-.22l-.28-.13a1.38,1.38,0,0,1-.42-.25.73.73,0,0,1-.22-.52.82.82,0,0,1,.83-.8h0a.81.81,0,0,1,.5.14,1,1,0,0,1,.31.35Z" fill="#0d2349"/><path d="M212.65,77.52a1.14,1.14,0,0,1,.78.22.94.94,0,0,1,.29.67.89.89,0,0,1-.85.88h-.4v1.36h-.35V77.52ZM212.42,79h.29c.42,0,.66-.21.66-.57s-.46-.54-.68-.54h-.27Z" fill="#0d2349"/><path d="M214.72,77.52a1.54,1.54,0,0,1,.76.17.84.84,0,0,1,.33.69.82.82,0,0,1-.76.87h0l1,1.39h-.42l-.94-1.37h-.09v1.37h-.35V77.52ZM214.56,79h.22c.43,0,.69-.21.69-.58a.48.48,0,0,0-.25-.45.87.87,0,0,0-.45-.09h-.21Z" fill="#0d2349"/><path d="M218.28,79.76H217l-.37.88h-.38l1.44-3.27L219,80.64h-.38Zm-.13-.33-.52-1.24-.54,1.24Z" fill="#0d2349"/><path d="M219.25,77.52l.82,2.34.94-2.5.93,2.5.94-2.34h.39L222,80.81l-.93-2.5-1,2.5-1.19-3.29Z" fill="#0d2349"/><path d="M223.71,77.52h.61a1.69,1.69,0,0,1,1.15.37,1.61,1.61,0,0,1,.14,2.26l-.14.13a1.54,1.54,0,0,1-1.14.36h-.64Zm.35,2.81h.31a1.3,1.3,0,0,0,.89-.28,1.24,1.24,0,0,0-.89-2.18h-.31Z" fill="#0d2349"/><path d="M227,80.31h1.66v.33h-2.24l1.7-2.81H226.6v-.32h2.06Zm1.27-3.58-.71.54-.21-.15.59-.61Z" fill="#0d2349"/><path d="M189.85,64.79h-1.33l-.37.88h-.39l1.44-3.27,1.4,3.27h-.39Zm-.13-.33-.53-1.25-.53,1.25Z" fill="#0d2349"/><path d="M190.94,65.67l.51-3.3,1.2,2.64,1.22-2.64.49,3.3H194l-.29-2.18-1.06,2.31-1.09-2.31-.31,2.18Z" fill="#0d2349"/><path d="M196.8,64.79h-1.33l-.37.88h-.38l1.43-3.27,1.4,3.27h-.37Zm-.14-.33-.52-1.25-.53,1.25Z" fill="#0d2349"/><path d="M198.28,65.34H200v.33h-2.24l1.7-2.81H198v-.33h2Z" fill="#0d2349"/><path d="M200.85,62.55v3.12h-.35V62.55Z" fill="#0d2349"/><path d="M201.65,65.67V62.46L204.08,65V62.55h.35v3.26L202,63.26v2.41Z" fill="#0d2349"/><path d="M206.85,64.1h1.3v.08a1.71,1.71,0,0,1-.3.93,1.39,1.39,0,0,1-1.16.57,1.64,1.64,0,0,1-1.74-1.5,1.61,1.61,0,0,1,1.48-1.73h0a1,1,0,0,1,.25,0,1.56,1.56,0,0,1,.93.3,1.85,1.85,0,0,1,.36.38l-.25.23a1.83,1.83,0,0,0-.3-.32,1.22,1.22,0,0,0-.76-.27,1.29,1.29,0,1,0,0,2.58,1.07,1.07,0,0,0,.93-.53.84.84,0,0,0,.13-.44h-.93Z" fill="#0d2349"/><rect x="196.64" y="188" width="41" height="27" rx="4.47" fill="#333"/><rect x="144.64" y="118" width="15" height="15" rx="2.4" fill="#ff4c31"/><rect x="161.64" y="118" width="15" height="15" rx="2.4" fill="#333"/><rect x="178.64" y="118" width="15" height="15" rx="2.4" fill="#333"/><rect x="195.64" y="118" width="15" height="15" rx="2.4" fill="#333"/><rect x="212.64" y="118" width="15" height="15" rx="2.4" fill="#333"/><rect x="229.64" y="118" width="15" height="15" rx="2.4" fill="#333"/><rect x="246.64" y="118" width="15" height="15" rx="2.4" fill="#333"/><rect x="263.64" y="118" width="15" height="15" rx="2.4" fill="#333"/><rect x="280.64" y="118" width="15" height="15" rx="2.4" fill="#333"/><rect x="144.64" y="135" width="15" height="15" rx="2.4" fill="#333"/><rect x="161.64" y="135" width="15" height="15" rx="2.4" fill="#333"/><rect x="178.64" y="135" width="15" height="15" rx="2.4" fill="#333"/><rect x="195.64" y="135" width="15" height="15" rx="2.4" fill="#333"/><rect x="212.64" y="135" width="15" height="15" rx="2.4" fill="#333"/><rect x="229.64" y="135" width="15" height="15" rx="2.4" fill="#333"/><rect x="246.64" y="135" width="15" height="15" rx="2.4" fill="#333"/><rect x="263.64" y="135" width="15" height="15" rx="2.4" fill="#333"/><rect x="280.64" y="135" width="15" height="15" rx="2.4" fill="#333"/><rect x="144.64" y="152" width="15" height="15" rx="2.4" fill="#333"/><rect x="161.64" y="152" width="15" height="15" rx="2.4" fill="#333"/><rect x="178.64" y="152" width="15" height="15" rx="2.4" fill="#333"/><rect x="195.64" y="152" width="15" height="15" rx="2.4" fill="#333"/><rect x="212.64" y="152" width="15" height="15" rx="2.4" fill="#333"/><rect x="229.64" y="152" width="15" height="15" rx="2.4" fill="#333"/><rect x="246.64" y="152" width="15" height="15" rx="2.4" fill="#333"/><rect x="263.64" y="152" width="15" height="15" rx="2.4" fill="#333"/><rect x="280.64" y="152" width="15" height="15" rx="2.4" fill="#333"/><rect x="178.64" y="169" width="83" height="15" rx="2.4" fill="#ff9100"/><rect x="263.64" y="169" width="15" height="15" rx="2.4" fill="#333"/><rect x="280.64" y="169" width="15" height="15" rx="2.4" fill="#333"/><path d="M393,244H40.24a23.61,23.61,0,0,0-23.15,19h399.1A23.6,23.6,0,0,0,393,244Z" fill="none"/><rect x="10.46" y="237.2" width="411.37" height="25.8" fill="#2947a8"/><path d="M40.24,244H393a23.6,23.6,0,0,1,21.33,13.48,9.45,9.45,0,0,0,8.49,5.52H424a9.3,9.3,0,0,0,9.3-9.3v-3a23.59,23.59,0,0,0-23.59-23.59h-386A23.59,23.59,0,0,0,0,250.58v.11H0v3A9.3,9.3,0,0,0,9.3,263h1.12A9.45,9.45,0,0,0,19,257.48,23.6,23.6,0,0,1,40.24,244Z" fill="#eaeaea"/><path d="M174.24,169H147a2.39,2.39,0,0,0-2.4,2.38V181.6A2.39,2.39,0,0,0,147,184H174.2a2.39,2.39,0,0,0,2.4-2.38V171.4A2.39,2.39,0,0,0,174.24,169Z" fill="#5371f0"/><circle cx="218.18" cy="7.3" r="3.89" fill="#333"/><path d="M206,105.63" fill="#ededed"/><path d="M349.38,195.7" fill="#ededed"/></g><g id="Layer_2" data-name="Layer 2"><path d="M365.09,201.9a33.39,33.39,0,0,0,9.28-46.3l-55.58,37A33.39,33.39,0,0,0,365.09,201.9Z" fill="#005e0b"/><path d="M363.14,199a29.89,29.89,0,0,0,8.31-41.43l-49.74,33.12A29.88,29.88,0,0,0,363.14,199Z" fill="#ffffc5"/><path d="M359.86,194.05a24,24,0,0,0,6.66-33.23l-39.88,26.56A24,24,0,0,0,359.86,194.05Z" fill="#ff3154"/><circle cx="356.93" cy="189.46" r="0.97" fill="#330404"/><circle cx="362.8" cy="183.72" r="0.97" fill="#330404"/><circle cx="366.02" cy="176.16" r="0.97" fill="#330404"/><circle cx="366.1" cy="167.95" r="0.97" fill="#330404"/><circle cx="333.23" cy="189.53" r="0.97" fill="#330404"/><circle cx="340.74" cy="192.85" r="0.97" fill="#330404"/><circle cx="348.95" cy="193.04" r="0.97" fill="#330404"/></g></svg>