<svg id="Layer_1" data-name="Layer 1" xmlns="http://www.w3.org/2000/svg" viewBox="0 0 463 244.39"><title>SVG2</title><rect x="108.87" y="133.54" width="244.96" height="99.04" fill="#2947a8"/><rect x="221.51" y="153.32" width="19.67" height="52.51" fill="#5371f0"/><path d="M281.68,216.65h-19.4a15.45,15.45,0,0,1-15.45-15.45h0V138.65h-30V201.2a15.45,15.45,0,0,1-15.45,15.45H181a3.15,3.15,0,0,0-3.15,3.15v3.85h107V219.8A3.15,3.15,0,0,0,281.68,216.65Zm-43.35-28a7,7,0,0,1-14,0v-27a7,7,0,0,1,14,0h0Z" transform="translate(0 0.35)" fill="#161616"/><circle cx="318.72" cy="224" r="12.82" fill="#161616"/><rect x="108.83" width="245" height="147" rx="14.52" fill="#161616"/><path d="M10,224H453a10,10,0,0,1,10,10h0a10,10,0,0,1-10,10H10A10,10,0,0,1,0,234H0A10,10,0,0,1,10,224Z" transform="translate(0 0.35)" fill="#fff"/><path d="M130.52,7.7H332.67a9.56,9.56,0,0,1,9.57,9.57v95a5.73,5.73,0,0,1-5.73,5.73H126.68a5.73,5.73,0,0,1-5.73-5.73v-95A9.56,9.56,0,0,1,130.52,7.7Z" transform="translate(0 0.35)" fill="#fff"/><path d="M125.12,7.7h213a4.17,4.17,0,0,1,4.17,4.17v6.62H121V11.87A4.17,4.17,0,0,1,125.12,7.7Z" transform="translate(0 0.35)" fill="#e5e5e5"/><circle cx="336.64" cy="13.45" r="3.66" fill="#5371f0"/><circle cx="315.76" cy="13.45" r="3.66" fill="#ff4c31"/><circle cx="326.2" cy="13.45" r="3.66" fill="#ff9100"/><path d="M166.5,43.42a.69.69,0,0,1,.69.69.69.69,0,0,1-1.38,0h0A.69.69,0,0,1,166.5,43.42Zm.49,2.8v5.6h-1v-5.6Z" transform="translate(0 0.35)" fill="#0d2349"/><path d="M168.82,46.22h1v.61a2,2,0,0,1,1.61-.78,1.87,1.87,0,0,1,1.6.77,2.45,2.45,0,0,1,.33,1.5v3.5h-1V48.38a1.6,1.6,0,0,0-.26-1,1.08,1.08,0,0,0-.92-.41,1.26,1.26,0,0,0-1,.43,2.41,2.41,0,0,0-.41,1.52v2.92h-1Z" transform="translate(0 0.35)" fill="#0d2349"/><path d="M177.47,47.52a.86.86,0,0,0-.78-.57.62.62,0,0,0-.67.57.15.15,0,0,0,0,.07c0,.4.27.52.91.79a3.53,3.53,0,0,1,1.35.87,1.32,1.32,0,0,1,.29.9A1.77,1.77,0,0,1,176.84,52h-.21a2,2,0,0,1-1.95-1.43l.83-.36a1.26,1.26,0,0,0,1.14.92.86.86,0,0,0,.91-.81.19.19,0,0,0,0-.08c0-.52-.38-.7-.91-.93a3.69,3.69,0,0,1-1.35-.82,1.24,1.24,0,0,1-.25-.83,1.49,1.49,0,0,1,1.45-1.56.54.54,0,0,1,.18,0,1.63,1.63,0,0,1,1.54,1Z" transform="translate(0 0.35)" fill="#0d2349"/><path d="M180.91,47.11v4.71h-1V47.11h-.59v-.89h.59v-2h1v2h1v.89Z" transform="translate(0 0.35)" fill="#0d2349"/><path d="M187.07,46.22h1v5.6h-1V51a2.42,2.42,0,0,1-1.92,1,3,3,0,0,1,0-5.9,2.33,2.33,0,0,1,1.92.93ZM183.42,49a1.88,1.88,0,0,0,1.63,2.09h.21a2.09,2.09,0,0,0,0-4.17,1.87,1.87,0,0,0-1.82,1.91.92.92,0,0,0,0,.16Z" transform="translate(0 0.35)" fill="#0d2349"/><path d="M190.87,42v9.83h-1V42Z" transform="translate(0 0.35)" fill="#0d2349"/><path d="M193.19,43.42a.69.69,0,1,1-.73.71.68.68,0,0,1,.66-.71Zm.49,2.8v5.6h-1v-5.6Z" transform="translate(0 0.35)" fill="#0d2349"/><path d="M195.51,46.22h1v.61a2,2,0,0,1,1.61-.78,1.87,1.87,0,0,1,1.6.77,2.52,2.52,0,0,1,.33,1.5v3.5h-1V48.38a1.66,1.66,0,0,0-.25-1,1.1,1.1,0,0,0-.92-.41,1.25,1.25,0,0,0-1,.43,2.35,2.35,0,0,0-.41,1.52v2.92h-1Z" transform="translate(0 0.35)" fill="#0d2349"/><path d="M206.15,46.22h1v5.4a3.62,3.62,0,0,1-.54,2.2,2.69,2.69,0,0,1-2.24,1,2.8,2.8,0,0,1-2-.76,2.53,2.53,0,0,1-.73-1.8h1a1.66,1.66,0,0,0,1.78,1.7,1.57,1.57,0,0,0,1.49-.79,2.7,2.7,0,0,0,.31-1.43V51a2.36,2.36,0,0,1-1.92,1,2.71,2.71,0,0,1-1.92-.76A3.05,3.05,0,0,1,201.5,49a3,3,0,0,1,.81-2.17,2.71,2.71,0,0,1,1.92-.76,2.37,2.37,0,0,1,1.92.93Zm-3.08,1.26a2.39,2.39,0,0,0,.07,3.18,1.82,1.82,0,0,0,2.43,0A2.31,2.31,0,0,0,206.2,49a2.25,2.25,0,0,0-.59-1.58,1.86,1.86,0,0,0-1.27-.5A1.77,1.77,0,0,0,203.07,47.48Z" transform="translate(0 0.35)" fill="#0d2349"/><path d="M210.81,42.78a3.37,3.37,0,0,1,2.07.57,2.26,2.26,0,0,1,.81,1.86A2,2,0,0,1,212.8,47a2.25,2.25,0,0,1,1.71,2.27,2.46,2.46,0,0,1-.92,1.94,3.23,3.23,0,0,1-2.15.59H209.2v-9Zm-.62,4H211c.53,0,1.77-.11,1.77-1.5s-1.46-1.51-1.74-1.51h-.79Zm0,4.05h1.16a2.5,2.5,0,0,0,1.58-.38,1.5,1.5,0,0,0,.6-1.24,1.48,1.48,0,0,0-.77-1.35,3.2,3.2,0,0,0-1.53-.27h-1Z" transform="translate(0 0.35)" fill="#0d2349"/><path d="M215.75,49a3,3,0,1,1,3,3h0a2.89,2.89,0,0,1-3-2.78Zm1,0a2,2,0,1,0,2-2.09,1.94,1.94,0,0,0-2,1.91Z" transform="translate(0 0.35)" fill="#0d2349"/><path d="M224.17,47.11v4.71h-1V47.11h-.59v-.89h.59v-2h1v2h1v.89Z" transform="translate(0 0.35)" fill="#0d2349"/><path d="M229.69,43.42a.69.69,0,0,1,.69.69.69.69,0,0,1-1.38,0h0A.69.69,0,0,1,229.69,43.42Zm.49,2.8v5.6h-1v-5.6Z" transform="translate(0 0.35)" fill="#0d2349"/><path d="M234.29,47.52a.86.86,0,0,0-.78-.57.62.62,0,0,0-.67.57v.07c0,.4.27.52.9.79a3.45,3.45,0,0,1,1.35.87,1.33,1.33,0,0,1,.3.9A1.79,1.79,0,0,1,233.67,52h-.21a2,2,0,0,1-1.86-1.43l.83-.36a1.26,1.26,0,0,0,1.14.92.86.86,0,0,0,.91-.81v-.08c0-.52-.38-.7-.9-.93a3.53,3.53,0,0,1-1.35-.82,1.25,1.25,0,0,1-.26-.83,1.51,1.51,0,0,1,1.45-1.56.61.61,0,0,1,.19,0,1.61,1.61,0,0,1,1.53,1Z" transform="translate(0 0.35)" fill="#0d2349"/><path d="M212.81,65.59V62h.49l2.2,2.37V62h.7v3.59h-.49l-2.2-2.4v2.4Z" transform="translate(0 0.35)" fill="#ff9100"/><path d="M217.71,62v3.59H217V62Z" transform="translate(0 0.35)" fill="#ff9100"/><path d="M220.53,62.61h-1.35v.79h1.24V64h-1.24v1h1.35v.6h-2V62h2Z" transform="translate(0 0.35)" fill="#ff9100"/><path d="M223,62.81a.74.74,0,0,0-.6-.3c-.38,0-.48.23-.48.42a.35.35,0,0,0,.1.24,1,1,0,0,0,.44.2,2,2,0,0,1,.72.37,1,1,0,0,1,.32.75,1.17,1.17,0,0,1-1.15,1.18h-.11A1.48,1.48,0,0,1,221,65l.46-.43a.81.81,0,0,0,.75.47.49.49,0,0,0,.55-.44.11.11,0,0,0,0,0,.45.45,0,0,0-.14-.33,1.55,1.55,0,0,0-.55-.26,1.76,1.76,0,0,1-.61-.31.84.84,0,0,1-.28-.67,1,1,0,0,1,1-1.06h.14a1.33,1.33,0,0,1,1,.42Z" transform="translate(0 0.35)" fill="#ff9100"/><path d="M226.2,64.83h-1.45l-.32.76h-.76L225.21,62h.56l1.51,3.59h-.76Zm-.2-.56-.52-1.35L225,64.27Z" transform="translate(0 0.35)" fill="#ff9100"/><path d="M228.15,62h.52l1,2.28,1-2.28h.51l.61,3.59H231l-.32-2.22-1,2.22h-.24l-.92-2.22-.38,2.22h-.64Z" transform="translate(0 0.35)" fill="#ff9100"/><path d="M236,63.79a1.93,1.93,0,1,1-2-1.87h.07A1.81,1.81,0,0,1,236,63.64.38.38,0,0,1,236,63.79Zm-.72,0a1.21,1.21,0,0,0-1.24-1.16,1.2,1.2,0,0,0,.05,2.4,1.16,1.16,0,0,0,1.19-1.13Z" transform="translate(0 0.35)" fill="#ff9100"/><path d="M238.13,65.59h-.53L236.34,62h.75l.81,2.44.87-2.48h.4l.82,2.48.86-2.44h.74l-1.35,3.59h-.55l-.79-2.28Z" transform="translate(0 0.35)" fill="#ff9100"/><path d="M242.73,62v3.59H242V62Z" transform="translate(0 0.35)" fill="#ff9100"/><path d="M244.68,62.61v3H244v-3h-.81V62h2.32v.61Z" transform="translate(0 0.35)" fill="#ff9100"/><path d="M246.91,63.94,245.68,62h.83l.76,1.24.79-1.24h.82l-1.27,1.94v1.65h-.7Z" transform="translate(0 0.35)" fill="#ff9100"/><path d="M187.74,72.47h87.71a7.42,7.42,0,0,1,7.42,7.42h0a7.42,7.42,0,0,1-7.42,7.42H187.74a7.42,7.42,0,0,1-7.42-7.42h0A7.42,7.42,0,0,1,187.74,72.47Z" transform="translate(0 0.35)" fill="#ededed"/><path d="M187.74,94.06h87.71a7.42,7.42,0,0,1,7.42,7.42h0a7.42,7.42,0,0,1-7.42,7.42H187.74a7.42,7.42,0,0,1-7.42-7.42h0A7.42,7.42,0,0,1,187.74,94.06Z" transform="translate(0 0.35)" fill="#ededed"/><rect x="236.88" y="51.42" width="56.63" height="0.82" rx="0.4" fill="#0d2349"/><path d="M213.41,27.59a.54.54,0,0,1,.54.54h0a.55.55,0,0,1-.47.63.55.55,0,0,1-.63-.46.48.48,0,0,1,0-.17.56.56,0,0,1,.56-.55Zm.37,2.24v4.48H213V29.83Z" transform="translate(0 0.35)"/><path d="M215.25,29.83H216v.53a1.54,1.54,0,0,1,1.28-.64,1.51,1.51,0,0,1,1.35.62,1.94,1.94,0,0,1,.25,1.2v2.7h-.82v-2.7a1.38,1.38,0,0,0-.21-.82.86.86,0,0,0-.73-.32,1,1,0,0,0-.79.35,1.85,1.85,0,0,0-.32,1.21V34.3h-.78Z" transform="translate(0 0.35)"/><path d="M222.15,30.87a.7.7,0,0,0-.63-.46.5.5,0,0,0-.54.46s0,0,0,.05c0,.33.21.42.72.64a2.69,2.69,0,0,1,1.12.68,1.1,1.1,0,0,1,.25.73,1.46,1.46,0,0,1-1.42,1.48h-.13a1.6,1.6,0,0,1-1.53-1.1l.66-.29a1,1,0,0,0,.91.75.72.72,0,0,0,.74-.66v-.06c0-.42-.31-.57-.73-.74a3.19,3.19,0,0,1-1.09-.66,1,1,0,0,1-.21-.66,1.23,1.23,0,0,1,1.17-1.27h.18a1.35,1.35,0,0,1,1.23.81Z" transform="translate(0 0.35)"/><path d="M224.93,30.54v3.77h-.78V30.54h-.48v-.71h.48V28.21h.78v1.62h.77v.71Z" transform="translate(0 0.35)"/><path d="M229.87,29.83h.78v4.48h-.78v-.62a1.88,1.88,0,0,1-1.53.75,2.37,2.37,0,0,1,0-4.72,1.84,1.84,0,0,1,1.53.74ZM227,32.07a1.5,1.5,0,0,0,1.3,1.67l.17,0a1.69,1.69,0,0,0,0-3.35,1.5,1.5,0,0,0-1.48,1.52A.61.61,0,0,1,227,32.07Z" transform="translate(0 0.35)"/><path d="M232.61,33.34a.55.55,0,0,1,.54.54.54.54,0,0,1-.54.54.55.55,0,0,1-.54-.54A.54.54,0,0,1,232.61,33.34Z" transform="translate(0 0.35)"/><path d="M235.36,26.44v7.87h-.78V26.44Z" transform="translate(0 0.35)" fill="#ff9100"/><path d="M237.21,27.59a.55.55,0,0,1,.55.55h0a.56.56,0,0,1-.55.56h0a.57.57,0,0,1-.55-.56.55.55,0,0,1,.55-.55Zm.39,2.24v4.48h-.77V29.83Z" transform="translate(0 0.35)" fill="#ff9100"/><path d="M239.07,29.83h.77v.53a1.59,1.59,0,0,1,1.35-.64,1.51,1.51,0,0,1,1.28.62,2,2,0,0,1,.26,1.2v2.7h-.79v-2.7a1.26,1.26,0,0,0-.2-.82.86.86,0,0,0-.73-.32,1,1,0,0,0-.79.35,1.92,1.92,0,0,0-.33,1.21V34.3h-.77Z" transform="translate(0 0.35)" fill="#ff9100"/><path d="M247.57,29.83h.78V34.2a2.75,2.75,0,0,1-.43,1.76,2.18,2.18,0,0,1-1.79.83,2.1,2.1,0,0,1-1.59-.61,2,2,0,0,1-.6-1.44h.77a1.38,1.38,0,0,0,.35.93,1.34,1.34,0,0,0,1.08.43,1.25,1.25,0,0,0,1.19-.63,2,2,0,0,0,.24-1.13v-.65a1.86,1.86,0,0,1-1.52.75,2.18,2.18,0,0,1-1.54-.6,2.46,2.46,0,0,1-.65-1.77,2.32,2.32,0,0,1,.65-1.74,2.25,2.25,0,0,1,1.54-.61,1.89,1.89,0,0,1,1.52.74Zm-2.45,1a1.9,1.9,0,0,0,0,2.54,1.42,1.42,0,0,0,1.94,0,1.78,1.78,0,0,0,.5-1.35,1.75,1.75,0,0,0-.47-1.27,1.44,1.44,0,0,0-1-.4,1.33,1.33,0,0,0-1,.48Z" transform="translate(0 0.35)" fill="#ff9100"/><path d="M219.21,100.48a.93.93,0,0,0-.26-.33.87.87,0,0,0-.51-.17.71.71,0,0,0-.76.65v.06a.5.5,0,0,0,.18.39,1.72,1.72,0,0,0,.47.28l.43.19a1.89,1.89,0,0,1,.69.42,1,1,0,0,1,.32.82,1.34,1.34,0,0,1-1.34,1.35h-.07a1.38,1.38,0,0,1-1-.36,1.87,1.87,0,0,1-.42-.8l.49-.14a1.11,1.11,0,0,0,.27.58.87.87,0,0,0,.65.25.85.85,0,0,0,.9-.8v-.09a.69.69,0,0,0-.21-.53,2.43,2.43,0,0,0-.54-.31l-.41-.19a2.34,2.34,0,0,1-.61-.36,1,1,0,0,1-.31-.75,1.19,1.19,0,0,1,1.19-1.16h.08a1.22,1.22,0,0,1,.72.21,1.41,1.41,0,0,1,.44.5Z" transform="translate(0 0.35)" fill="#0d2349"/><path d="M221.52,99.59a1.75,1.75,0,0,1,1.13.31,1.33,1.33,0,0,1,.4,1,1.23,1.23,0,0,1-1.22,1.26h-.57v2h-.5v-4.5Zm-.33,2.07h.42c.59,0,.94-.3.94-.81,0-.72-.66-.79-1-.79h-.38Z" transform="translate(0 0.35)" fill="#0d2349"/><path d="M224.5,99.59a2,2,0,0,1,1.09.25,1.25,1.25,0,0,1-.62,2.23h0l1.43,2h-.6l-1.35-2h-.14v2h-.5v-4.5Zm-.23,2.08h.32c.62,0,1-.3,1-.82a.7.7,0,0,0-.35-.66,1.35,1.35,0,0,0-.65-.13h-.31Z" transform="translate(0 0.35)" fill="#0d2349"/><path d="M229.64,102.82h-1.92l-.54,1.27h-.55l2.08-4.71,2,4.71h-.56Zm-.19-.48-.76-1.79-.77,1.79Z" transform="translate(0 0.35)" fill="#0d2349"/><path d="M231,99.59l1.19,3.38,1.35-3.61,1.34,3.61,1.35-3.38h.57l-1.9,4.74-1.35-3.6-1.42,3.6-1.73-4.74Z" transform="translate(0 0.35)" fill="#0d2349"/><path d="M237.46,99.59h.88a2.38,2.38,0,0,1,1.66.53,2.31,2.31,0,0,1,.2,3.26,1.8,1.8,0,0,1-.2.19,2.28,2.28,0,0,1-1.64.52h-.92Zm.5,4h.45a1.9,1.9,0,0,0,1.28-.4,1.8,1.8,0,0,0-1.28-3.15H238Z" transform="translate(0 0.35)" fill="#0d2349"/><path d="M242.15,103.61h2.39v.48h-3.23l2.46-4h-2.14v-.47h3ZM244,98.45l-1,.78-.3-.22.85-.88Z" transform="translate(0 0.35)" fill="#0d2349"/><path d="M188.64,81.23h-1.91l-.54,1.27h-.55l2.07-4.71,2,4.71h-.55Zm-.18-.48L187.7,79l-.77,1.79Z" transform="translate(0 0.35)" fill="#0d2349"/><path d="M190.21,82.5l.74-4.75,1.73,3.8,1.77-3.8.7,4.75h-.51l-.44-3.14-1.52,3.32-1.57-3.32-.44,3.14Z" transform="translate(0 0.35)" fill="#0d2349"/><path d="M198.67,81.23h-1.92l-.54,1.27h-.55l2.07-4.71,2,4.71h-.54Zm-.2-.48L197.71,79l-.77,1.79Z" transform="translate(0 0.35)" fill="#0d2349"/><path d="M200.8,82h2.46v.48H200l2.46-4h-2.15V78h2.92Z" transform="translate(0 0.35)" fill="#0d2349"/><path d="M204.5,78v4.5H204V78Z" transform="translate(0 0.35)" fill="#0d2349"/><path d="M205.66,82.5V77.87l3.51,3.67V78h.5v4.7L206.16,79V82.5Z" transform="translate(0 0.35)" fill="#0d2349"/><path d="M213.15,80.24H215v.11a2.35,2.35,0,0,1-.43,1.35,2,2,0,0,1-1.67.81,2.34,2.34,0,0,1-.36-4.66h.36a2.26,2.26,0,0,1,1.35.45,2.62,2.62,0,0,1,.51.54l-.36.34a2.83,2.83,0,0,0-.43-.48,1.68,1.68,0,0,0-1.1-.37,1.86,1.86,0,0,0,0,3.71,1.52,1.52,0,0,0,1.35-.76,1.29,1.29,0,0,0,.19-.63h-1.35Z" transform="translate(0 0.35)" fill="#0d2349"/><path d="M108.83,127.53h245v14a7.55,7.55,0,0,1-7.55,7.55H116.38a7.55,7.55,0,0,1-7.55-7.55Z" transform="translate(0 0.35)" fill="#eaeaea"/><path d="M234.15,133.29a3,3,0,0,0-4.25-.49c-4.4,2.9-7.35,9.84-7.35,9.84l.3,0c2.58-2.13,7.63-6.27,11.47-9.09Z" transform="translate(0 0.35)" fill="#cecece"/><path d="M222.85,142.59a27.49,27.49,0,0,0,11.66-3.85,2.74,2.74,0,0,0,.94-3.48,12.93,12.93,0,0,0-.64-1.13l-.49-.63C230.48,136.32,225.43,140.46,222.85,142.59Z" transform="translate(0 0.35)" fill="#d8d8d8"/><path d="M236.09,132.25l-.55-.51a.48.48,0,0,0-.75.15l-.64,1.4.17.21C235,133.05,235.54,132.62,236.09,132.25Z" transform="translate(0 0.35)" fill="#cecece"/><path d="M236.54,132.66l-.45-.41c-.55.37-1.14.8-1.77,1.25l.49.63a8.26,8.26,0,0,0,1.66-.72A.47.47,0,0,0,236.54,132.66Z" transform="translate(0 0.35)" fill="#cecece"/><path d="M147.63,211.88s9.12-9.11,11.87-9.07,7.47,7.45,7.66,11.36-16.47,1.72-16.47,1.72Z" transform="translate(0 0.35)" fill="#05aa05"/><path d="M77.11,223.65s46.82-28.91,64.22-19.52,10.91,19.52,10.91,19.52Z" transform="translate(0 0.35)" fill="#ff900b"/><path d="M102.56,210.42s10.28,1.91,12.7,7.57c1.23,2.85.61.31-.29-2.92-1.59-5.63,4-10.9,9.36-8.63a11.51,11.51,0,0,1,3.09,2.49,24.67,24.67,0,0,1,4.1,5.18l-1.21-11.78S115.72,202.86,102.56,210.42Z" transform="translate(0 0.35)" fill="#ff6d00"/><rect x="108.87" y="0.25" width="244.96" height="223.75" fill="none"/></svg>