<svg xmlns="http://www.w3.org/2000/svg" viewBox="0 0 460.32 265">
  <title>SVG3</title>
  <g id="Layer_4" data-name="Layer 4">
    <path d="M0,238H460.32a0,0,0,0,1,0,0v16a11,11,0,0,1-11,11H11A11,11,0,0,1,0,254V238A0,0,0,0,1,0,238Z" fill="#2947a8"/>
  </g>
  <g id="Layer_1" data-name="Layer 1">
    <g id="Layer_3" data-name="Layer 3">
      <path d="M339.55,156.8a1.27,1.27,0,0,1-.05-.67,64.88,64.88,0,0,0,.7-14.21c-.18-3.36-.63-8.07-1.1-12.57a1.87,1.87,0,0,1,3.6-.9l.66,1.62A7.41,7.41,0,0,0,356,131.93h0a1.87,1.87,0,0,1,3.18,1.9,203.71,203.71,0,0,0-8.45,23.47C346,174.21,340.41,159.31,339.55,156.8Z" transform="translate(-2.34)" fill="#19bf25"/>
      <path d="M344.61,156.43a3.14,3.14,0,0,1-5.81,1.51,44.92,44.92,0,0,0-7.95-10.08,22.52,22.52,0,0,0-14.11-6.1,3.14,3.14,0,0,1-1.87-5.56C326.49,126.79,346.53,116.11,344.61,156.43Z" transform="translate(-2.34)" fill="#159b1b"/>
      <path d="M376.21,147.21a4.11,4.11,0,0,1-4,6.06,34.67,34.67,0,0,0-23.63,6.23,4.1,4.1,0,0,1-6-5.2C350.55,138.77,363.24,123.59,376.21,147.21Z" transform="translate(-2.34)" fill="#159b1b"/>
      <path d="M345,161.84a3.52,3.52,0,0,1-5.93,3.12,49.18,49.18,0,0,0-7.82-6.37,36.49,36.49,0,0,0-10.75-4.69,3.52,3.52,0,0,1-.19-6.76C330,144.07,342,144.16,345,161.84Z" transform="translate(-2.34)" fill="#19bf25"/>
      <path d="M366.6,159.34a3.1,3.1,0,0,1-2.57,5.3,51.68,51.68,0,0,0-11.3-.42,36.35,36.35,0,0,0-12.55,3.38,3.1,3.1,0,0,1-4-4.46C342,154.14,352.18,145.2,366.6,159.34Z" transform="translate(-2.34)" fill="#19bf25"/>
      <rect x="306.23" y="157.83" width="62.47" height="82.78" rx="31.24" transform="translate(20.54 -34.46) rotate(6.05)" fill="#ff9100"/>
      <g>
        <path d="M339.41,236.45v0a30.41,30.41,0,0,0,4-.94l-.77-.33A2.44,2.44,0,0,0,339.41,236.45Z" transform="translate(-2.34)" fill="#ff9100"/>
        <path d="M321.75,234.28c-.9-.4-1.76-.83-2.6-1.3l-1.14,2.6a2.44,2.44,0,0,0,1.25,3.21h0a2.44,2.44,0,0,0,3.21-1.26l1.11-2.53c-.61-.22-1.23-.46-1.83-.72Z" transform="translate(-2.34)" fill="#19bf25"/>
        <path d="M368.19,184.89,359,183.82a2.46,2.46,0,0,1-2.15-2.72l.58-5a2.45,2.45,0,0,1,2.71-2.15l6.31.73s0,0,0,0a31.49,31.49,0,0,0-3.48-5.28h0l-2.26-.26a2.46,2.46,0,0,1-2.16-2.72l.16-1.32h0a30.78,30.78,0,0,0-4.51-3.14h0l-.45,3.9A2.44,2.44,0,0,1,351,168l-5.27-.61a2.45,2.45,0,0,1-2.16-2.71l.73-6.29s0,0,0,0c-.64-.11-1.28-.21-1.94-.29h0c-1-.11-1.93-.17-2.88-.2l0,0-.72,6.22a2.45,2.45,0,0,1-2.71,2.15l-4.35-.51a2.45,2.45,0,0,1-2.16-2.71l.46-3.9a0,0,0,0,0,0,0,30.52,30.52,0,0,0-5.11,2h0l-.16,1.33a2.45,2.45,0,0,1-2.71,2.15l-2.27-.26h0a31.53,31.53,0,0,0-4.6,4.35s0,0,0,0l6.31.73a2.46,2.46,0,0,1,2.15,2.72l-.58,5a2.45,2.45,0,0,1-2.71,2.15L311,178.26a2.37,2.37,0,0,0-1.71.46h0q-.48,1.36-.84,2.79h0a2.45,2.45,0,0,0,2,1.58l9.23,1.07a2.45,2.45,0,0,1,2.16,2.72l-.61,5.27a2.46,2.46,0,0,1-2.72,2.15l-9.11-1.06a2.52,2.52,0,0,0-2.69,1.55,2.44,2.44,0,0,0,2,3.28l9.24,1.07a2.45,2.45,0,0,1,2.15,2.72l-.5,4.34a2.46,2.46,0,0,1-2.72,2.16l-9.24-1.07a2.38,2.38,0,0,0-1.94.66h0a29.76,29.76,0,0,0,.55,3.9,2.37,2.37,0,0,0,.84.27l9.24,1.07a2.44,2.44,0,0,1,2.15,2.71l-.46,4a2.45,2.45,0,0,1-2.72,2.15h0a2.4,2.4,0,0,0-2.07,4l.69.77h0l.81.09a2.45,2.45,0,0,1,2.15,2.72h0a31.11,31.11,0,0,0,4.52,3.14h0l.3-2.58A2.44,2.44,0,0,1,324.4,228l4.35.5a2.44,2.44,0,0,1,2.15,2.72l-.56,4.89s0,0,0,0c.93.19,1.88.36,2.85.47h0c.65.07,1.31.12,1.95.16a0,0,0,0,0,0,0l.57-5a2.46,2.46,0,0,1,2.72-2.15l5.27.61a2.44,2.44,0,0,1,2.15,2.72l-.29,2.57s0,0,0,0a31.87,31.87,0,0,0,5.12-2h0a2.46,2.46,0,0,1,2.72-2.16l.81.1h0a31.25,31.25,0,0,0,5.1-4.29,0,0,0,0,0,0,0l-5.35-.62a2.44,2.44,0,0,1-2.15-2.71l.46-4A2.45,2.45,0,0,1,355,217.7l9.23,1.07a2.39,2.39,0,0,0,.89-.07,30.62,30.62,0,0,0,1.42-3.67h0a2.4,2.4,0,0,0-1.75-1.09l-9.23-1.07a2.44,2.44,0,0,1-2.15-2.72l.5-4.35a2.45,2.45,0,0,1,2.72-2.15l9.11,1.06a2.52,2.52,0,0,0,2.68-1.55,2.43,2.43,0,0,0-2-3.28l-9.23-1.07a2.44,2.44,0,0,1-2.15-2.72l.61-5.27a2.44,2.44,0,0,1,2.71-2.15l9.24,1.07a2.42,2.42,0,0,0,2.3-1.08h0c0-1-.07-1.94-.17-2.9h0A2.39,2.39,0,0,0,368.19,184.89ZM332,221.53a2.45,2.45,0,0,1-2.72,2.15l-4.35-.5a2.46,2.46,0,0,1-2.15-2.72l.46-4a2.46,2.46,0,0,1,2.72-2.16l4.35.51a2.44,2.44,0,0,1,2.15,2.71Zm1.58-13.69A2.45,2.45,0,0,1,330.9,210l-4.35-.51a2.44,2.44,0,0,1-2.15-2.71l.5-4.35a2.44,2.44,0,0,1,2.72-2.15l4.35.5a2.45,2.45,0,0,1,2.15,2.72Zm1.63-14.05a2.45,2.45,0,0,1-2.71,2.15l-4.35-.51a2.44,2.44,0,0,1-2.15-2.71l.61-5.27a2.45,2.45,0,0,1,2.71-2.16l4.35.51a2.45,2.45,0,0,1,2.16,2.72Zm1.74-15a2.46,2.46,0,0,1-2.72,2.15l-4.34-.51a2.45,2.45,0,0,1-2.16-2.71l.58-5a2.44,2.44,0,0,1,2.72-2.15l4.34.5a2.45,2.45,0,0,1,2.16,2.72Zm10,44.46a2.46,2.46,0,0,1-2.72,2.15l-5.27-.61a2.45,2.45,0,0,1-2.15-2.72l.46-4a2.46,2.46,0,0,1,2.72-2.15l5.27.61a2.46,2.46,0,0,1,2.15,2.72Zm1.59-13.69a2.46,2.46,0,0,1-2.72,2.15l-5.27-.61a2.44,2.44,0,0,1-2.15-2.72l.5-4.34a2.46,2.46,0,0,1,2.72-2.16l5.27.62a2.44,2.44,0,0,1,2.15,2.71Zm1.62-14.06a2.44,2.44,0,0,1-2.71,2.15l-5.27-.61a2.44,2.44,0,0,1-2.15-2.71l.61-5.27a2.45,2.45,0,0,1,2.71-2.16l5.27.61a2.46,2.46,0,0,1,2.16,2.72Zm1.74-15a2.44,2.44,0,0,1-2.72,2.15l-5.27-.61a2.45,2.45,0,0,1-2.15-2.71l.58-5a2.45,2.45,0,0,1,2.71-2.16l5.27.62a2.45,2.45,0,0,1,2.16,2.71Z" transform="translate(-2.34)" fill="#ff6d00"/>
      </g>
    </g>
    <path d="M242.49,0H42.79a5,5,0,0,0-5,5V198.31a11.31,11.31,0,0,0,11.31,11.31h187a11.31,11.31,0,0,0,11.31-11.31V5A5,5,0,0,0,242.49,0Z" transform="translate(-2.34)" fill="#efefef"/>
    <polygon points="235.29 209.62 45.32 209.62 48.02 221.63 232.58 221.63 235.29 209.62" fill="#e2e2e2"/>
    <rect x="51.85" y="221.68" width="24.08" height="5.36" fill="#ddd"/>
    <rect x="204.68" y="221.68" width="24.08" height="5.36" fill="#ddd"/>
    <path d="M247.45,182.87H37.83v22.52a4.23,4.23,0,0,0,4.23,4.23H243.22a4.23,4.23,0,0,0,4.23-4.23Z" transform="translate(-2.34)" fill="#efefef"/>
    <rect x="35.49" y="154.49" width="209.62" height="26.75" fill="#efefef"/>
    <rect x="97.72" y="157.76" width="82.98" height="19.65" fill="#232323"/>
    <rect x="180.7" y="157.76" width="64.42" height="19.65" fill="#ff4c31"/>
    <rect x="35.49" y="157.76" width="62.67" height="19.65" fill="#ff9100"/>
    <rect x="45.32" y="9.28" width="189.97" height="136.47" rx="7.73" fill="#353535"/>
    <rect x="35.49" y="181.24" width="209.62" height="1.64" fill="#ddd"/>
    <rect x="35.49" y="152.85" width="209.62" height="1.64" fill="#ddd"/>
    <rect x="184.52" y="182.87" width="1.64" height="26.75" fill="#ddd"/>
    <rect y="226.62" width="460.32" height="22.76" rx="11.38" fill="#232323"/>
    <rect x="61.7" y="21.05" width="157.21" height="112.94" rx="6.39" fill="#232323"/>
  </g>
  <g id="Layer_2" data-name="Layer 2">
    <path d="M78.62,25.78h125.7c3.29,0,6,3.76,6,8.39v89.55c0,2.78-1.6,5-3.57,5H76.24c-2,0-3.57-2.25-3.57-5V34.17C72.67,29.54,75.33,25.78,78.62,25.78Z" transform="translate(-2.34)" fill="#2f55cc"/>
    <path d="M75.27,25.78h132.4c1.44,0,2.6,1.64,2.6,3.66v5.81H72.67V29.44C72.67,27.42,73.83,25.78,75.27,25.78Z" transform="translate(-2.34)" fill="#5371f0"/>
    <circle cx="203.45" cy="30.51" r="3.21" fill="#2f55cc"/>
    <circle cx="185.13" cy="30.51" r="3.21" fill="#ff4c31"/>
    <circle cx="194.29" cy="30.51" r="3.21" fill="#ff9100"/>
    <path d="M84.37,57.11a.6.6,0,1,1-.6.6h0A.6.6,0,0,1,84.37,57.11Zm.43,2.46v4.91H84V59.57Z" transform="translate(-2.34)" fill="#0d2349"/>
    <path d="M86.41,59.57h.85v.53a1.72,1.72,0,0,1,1.41-.68,1.66,1.66,0,0,1,1.41.67,2.16,2.16,0,0,1,.28,1.31v3.08h-.85v-3a1.44,1.44,0,0,0-.22-.9,1,1,0,0,0-.81-.35,1,1,0,0,0-.86.38,2.07,2.07,0,0,0-.36,1.32v2.57h-.85Z" transform="translate(-2.34)" fill="#0d2349"/>
    <path d="M94,60.71a.75.75,0,0,0-.69-.5.54.54,0,0,0-.59.49v.06c0,.36.24.47.79.7a3.11,3.11,0,0,1,1.19.76A1.19,1.19,0,0,1,95,63a1.57,1.57,0,0,1-1.51,1.62h-.19a1.73,1.73,0,0,1-1.71-1.25l.73-.31a1.13,1.13,0,0,0,1,.81.78.78,0,0,0,.81-.71v-.08c0-.46-.33-.61-.79-.81a3.22,3.22,0,0,1-1.19-.72,1.07,1.07,0,0,1-.22-.73,1.32,1.32,0,0,1,1.27-1.37h.16a1.42,1.42,0,0,1,1.35.89Z" transform="translate(-2.34)" fill="#0d2349"/>
    <path d="M97,60.35v4.13h-.85V60.35h-.52v-.78h.52V57.79H97v1.78h.86v.78Z" transform="translate(-2.34)" fill="#0d2349"/>
    <path d="M102.41,59.57h.85v4.91h-.85v-.69a2.05,2.05,0,0,1-1.68.83,2.59,2.59,0,0,1,0-5.17,2,2,0,0,1,1.68.82ZM99.22,62a1.64,1.64,0,0,0,1.43,1.83l.18,0a1.84,1.84,0,0,0,0-3.66,1.63,1.63,0,0,0-1.6,1.67s0,.09,0,.14Z" transform="translate(-2.34)" fill="#0d2349"/>
    <path d="M105.75,55.85v8.63h-.85V55.85Z" transform="translate(-2.34)" fill="#0d2349"/>
    <path d="M107.79,57.11a.6.6,0,1,1-.64.62.59.59,0,0,1,.57-.62Zm.42,2.46v4.91h-.85V59.57Z" transform="translate(-2.34)" fill="#0d2349"/>
    <path d="M109.82,59.57h.88v.53a1.71,1.71,0,0,1,1.41-.68,1.63,1.63,0,0,1,1.4.67,2.24,2.24,0,0,1,.29,1.31v3.08H113v-3a1.52,1.52,0,0,0-.23-.9.94.94,0,0,0-.8-.35,1.06,1.06,0,0,0-.87.38,2.06,2.06,0,0,0-.35,1.32v2.57h-.85Z" transform="translate(-2.34)" fill="#0d2349"/>
    <path d="M119.15,59.57H120V64.3a3.11,3.11,0,0,1-.47,1.93,2.33,2.33,0,0,1-2,.91,2.41,2.41,0,0,1-1.75-.66,2.18,2.18,0,0,1-.64-1.58H116a1.56,1.56,0,0,0,.38,1,1.52,1.52,0,0,0,1.18.48,1.4,1.4,0,0,0,1.31-.69,2.36,2.36,0,0,0,.27-1.25v-.71a2.08,2.08,0,0,1-1.68.82,2.33,2.33,0,0,1-1.68-.66,2.62,2.62,0,0,1-.71-1.94,2.56,2.56,0,0,1,.71-1.91,2.37,2.37,0,0,1,1.68-.66,2.06,2.06,0,0,1,1.68.82Zm-2.7,1.1a2.1,2.1,0,0,0,.06,2.79,1.57,1.57,0,0,0,2.13,0,2.07,2.07,0,0,0,0-2.8,1.52,1.52,0,0,0-1.11-.44A1.49,1.49,0,0,0,116.45,60.67Z" transform="translate(-2.34)" fill="#0d2349"/>
    <path d="M123.24,56.55a2.89,2.89,0,0,1,1.81.5,1.93,1.93,0,0,1,.71,1.63,1.74,1.74,0,0,1-.78,1.55,2,2,0,0,1,1.51,2,2.19,2.19,0,0,1-.81,1.7,2.9,2.9,0,0,1-1.89.53h-2v-7.9Zm-.54,3.55h.66c.46,0,1.55-.09,1.55-1.31s-1.28-1.33-1.52-1.33h-.69Zm0,3.55h1a2.17,2.17,0,0,0,1.38-.33,1.32,1.32,0,0,0,.52-1.09,1.28,1.28,0,0,0-.67-1.18,2.8,2.8,0,0,0-1.34-.24h-.9Z" transform="translate(-2.34)" fill="#0d2349"/>
    <path d="M127.58,62a2.6,2.6,0,1,1,2.62,2.58h0a2.51,2.51,0,0,1-2.6-2.43A.38.38,0,0,1,127.58,62Zm.87,0a1.73,1.73,0,1,0,1.73-1.83,1.69,1.69,0,0,0-1.73,1.67Z" transform="translate(-2.34)" fill="#0d2349"/>
    <path d="M135,60.35v4.13h-.85V60.35h-.52v-.78h.52V57.79H135v1.78h.85v.78Z" transform="translate(-2.34)" fill="#0d2349"/>
    <path d="M139.8,57.11a.6.6,0,1,1-.6.6h0A.6.6,0,0,1,139.8,57.11Zm.43,2.46v4.91h-.85V59.57Z" transform="translate(-2.34)" fill="#0d2349"/>
    <path d="M143.84,60.71a.75.75,0,0,0-.69-.5.54.54,0,0,0-.59.49v.06c0,.36.24.47.79.7a3.11,3.11,0,0,1,1.19.76,1.19,1.19,0,0,1,.26.79,1.57,1.57,0,0,1-1.51,1.62h-.19a1.75,1.75,0,0,1-1.63-1.25l.73-.31a1.14,1.14,0,0,0,1,.81.76.76,0,0,0,.8-.71v-.08c0-.46-.33-.61-.79-.81a3.18,3.18,0,0,1-1.18-.72,1.14,1.14,0,0,1-.23-.73,1.32,1.32,0,0,1,1.28-1.37h.15a1.42,1.42,0,0,1,1.35.89Z" transform="translate(-2.34)" fill="#0d2349"/>
    <path d="M125,76.55V73.41h.42l1.93,2.08V73.41H128v3.14h-.43l-1.93-2.1v2.1Z" transform="translate(-2.34)" fill="#5371f0"/>
    <path d="M129.29,73.41v3.14h-.6V73.41Z" transform="translate(-2.34)" fill="#5371f0"/>
    <path d="M131.77,73.94h-1.19v.7h1.09v.53h-1.09V76h1.19v.52H130V73.41h1.76Z" transform="translate(-2.34)" fill="#5371f0"/>
    <path d="M133.92,74.12a.64.64,0,0,0-.52-.27c-.33,0-.43.21-.43.37a.28.28,0,0,0,.1.21.89.89,0,0,0,.38.18,1.75,1.75,0,0,1,.64.32.86.86,0,0,1,.27.66,1,1,0,0,1-1,1h-.09a1.3,1.3,0,0,1-1.09-.59l.4-.38a.73.73,0,0,0,.66.42.45.45,0,0,0,.49-.39v-.05a.36.36,0,0,0-.12-.28,1.3,1.3,0,0,0-.49-.23,1.77,1.77,0,0,1-.53-.27.75.75,0,0,1-.25-.59.91.91,0,0,1,.9-.93h.12a1.22,1.22,0,0,1,.89.37Z" transform="translate(-2.34)" fill="#5371f0"/>
    <path d="M136.74,75.89h-1.27l-.28.66h-.67l1.35-3.14h.49l1.32,3.14H137Zm-.18-.5-.45-1.18-.45,1.18Z" transform="translate(-2.34)" fill="#5371f0"/>
    <path d="M138.45,73.41h.45l.84,2,.87-2h.45l.53,3.14H141l-.28-1.94-.84,1.94h-.22l-.8-1.94-.33,1.94h-.57Z" transform="translate(-2.34)" fill="#5371f0"/>
    <path d="M145.36,75a1.69,1.69,0,1,1-1.73-1.65h.05a1.59,1.59,0,0,1,1.68,1.52A.28.28,0,0,1,145.36,75Zm-.63,0a1.06,1.06,0,1,0-1,1.09,1,1,0,0,0,1-1Z" transform="translate(-2.34)" fill="#5371f0"/>
    <path d="M147.2,76.55h-.46l-1.1-3.14h.65l.71,2.14.77-2.18h.34l.72,2.18.76-2.14h.65l-1.18,3.14h-.49l-.7-2Z" transform="translate(-2.34)" fill="#5371f0"/>
    <path d="M151.24,73.41v3.14h-.62V73.41Z" transform="translate(-2.34)" fill="#5371f0"/>
    <path d="M153,73.94v2.61h-.61V73.94h-.71v-.53h2v.53Z" transform="translate(-2.34)" fill="#5371f0"/>
    <path d="M154.9,75.11l-1.07-1.7h.72l.67,1.08.69-1.08h.72l-1.11,1.7v1.44h-.62Z" transform="translate(-2.34)" fill="#5371f0"/>
    <path d="M103,82.59h76.94a6.51,6.51,0,0,1,6.51,6.51h0a6.52,6.52,0,0,1-6.51,6.51H103a6.52,6.52,0,0,1-6.51-6.51h0A6.51,6.51,0,0,1,103,82.59Z" transform="translate(-2.34)" fill="#5371f0"/>
    <path d="M103,101.53h76.94a6.51,6.51,0,0,1,6.51,6.51h0a6.52,6.52,0,0,1-6.51,6.51H103A6.52,6.52,0,0,1,96.49,108h0A6.51,6.51,0,0,1,103,101.53Z" transform="translate(-2.34)" fill="#5371f0"/>
    <rect x="143.77" y="63.82" width="49.68" height="0.72" rx="0.36" fill="#0d2349"/>
    <path d="M125.52,43.22a.48.48,0,0,1,.47.48h0a.49.49,0,0,1-1,.15.38.38,0,0,1,0-.15.49.49,0,0,1,.49-.49Zm.33,2v3.93h-.68V45.19Z" transform="translate(-2.34)"/>
    <path d="M127.14,45.19h.68v.46a1.38,1.38,0,0,1,1.13-.56,1.33,1.33,0,0,1,1.18.55,1.69,1.69,0,0,1,.23,1v2.37h-.73V46.69a1.21,1.21,0,0,0-.18-.72.77.77,0,0,0-.64-.28.86.86,0,0,0-.69.3,1.56,1.56,0,0,0-.28,1.07v2h-.69Z" transform="translate(-2.34)"/>
    <path d="M133.19,46.1a.62.62,0,0,0-.56-.4.44.44,0,0,0-.47.4v0c0,.28.19.36.63.55a2.42,2.42,0,0,1,1,.61A.92.92,0,0,1,134,48a1.26,1.26,0,0,1-1.24,1.29h-.12a1.42,1.42,0,0,1-1.34-1l.58-.25a.9.9,0,0,0,.79.65.61.61,0,0,0,.65-.58.09.09,0,0,0,0-.05c0-.37-.28-.5-.64-.65a2.78,2.78,0,0,1-1-.58.87.87,0,0,1-.18-.58,1.07,1.07,0,0,1,1-1.11h.16a1.18,1.18,0,0,1,1.08.71Z" transform="translate(-2.34)"/>
    <path d="M135.62,45.82v3.3h-.68v-3.3h-.42v-.63h.42V43.77h.68v1.42h.68v.63Z" transform="translate(-2.34)"/>
    <path d="M140,45.19h.68v3.93H140v-.55a1.7,1.7,0,0,1-1.34.67,2.09,2.09,0,0,1,0-4.15,1.65,1.65,0,0,1,1.34.65Zm-2.56,2a1.32,1.32,0,0,0,1.14,1.47h.15a1.48,1.48,0,0,0,0-2.93,1.31,1.31,0,0,0-1.3,1.33A.49.49,0,0,0,137.4,47.15Z" transform="translate(-2.34)"/>
    <path d="M142.36,48.27a.47.47,0,1,1-.47.47A.47.47,0,0,1,142.36,48.27Z" transform="translate(-2.34)"/>
    <path d="M144.77,42.22v6.9h-.68v-6.9Z" transform="translate(-2.34)" fill="#5371f0"/>
    <path d="M146.39,43.22a.49.49,0,0,1,.49.49h0a.48.48,0,0,1-.49.48h0a.49.49,0,0,1,0-1Zm.35,2v3.93h-.68V45.19Z" transform="translate(-2.34)" fill="#5371f0"/>
    <path d="M148,45.19h.67v.46a1.41,1.41,0,0,1,1.19-.56,1.34,1.34,0,0,1,1.12.55,1.77,1.77,0,0,1,.23,1v2.37h-.69V46.69a1.14,1.14,0,0,0-.18-.72.75.75,0,0,0-.64-.28.89.89,0,0,0-.7.3,1.69,1.69,0,0,0-.28,1.07v2h-.67Z" transform="translate(-2.34)" fill="#5371f0"/>
    <path d="M155.48,45.19h.69V49a2.4,2.4,0,0,1-.38,1.54,2.06,2.06,0,0,1-3,.2,1.71,1.71,0,0,1-.52-1.26H153a1.16,1.16,0,0,0,1.25,1.19,1.1,1.1,0,0,0,1-.55,1.74,1.74,0,0,0,.21-1v-.57a1.66,1.66,0,0,1-1.33.67,1.94,1.94,0,0,1-1.35-.54,2.12,2.12,0,0,1-.57-1.55,2.05,2.05,0,0,1,.57-1.52,1.94,1.94,0,0,1,1.35-.54,1.64,1.64,0,0,1,1.33.65Zm-2.15.89a1.65,1.65,0,0,0,0,2.22,1.24,1.24,0,0,0,1.7,0,1.53,1.53,0,0,0,.44-1.18,1.56,1.56,0,0,0-.41-1.12,1.33,1.33,0,0,0-.89-.35,1.16,1.16,0,0,0-.86.43Z" transform="translate(-2.34)" fill="#5371f0"/>
    <path d="M130.61,107.16a1.09,1.09,0,0,0-.23-.29.74.74,0,0,0-.45-.15.62.62,0,0,0-.66.57v0a.4.4,0,0,0,.15.34,1.27,1.27,0,0,0,.42.25l.37.17a1.79,1.79,0,0,1,.61.36,1,1,0,0,1,.28.73,1.18,1.18,0,0,1-1.18,1.18h-.06a1.18,1.18,0,0,1-.86-.32,1.49,1.49,0,0,1-.37-.7l.42-.12a1.05,1.05,0,0,0,.24.51.75.75,0,0,0,.57.21.73.73,0,0,0,.79-.69v-.09a.58.58,0,0,0-.19-.46,2,2,0,0,0-.47-.27l-.36-.17a1.71,1.71,0,0,1-.53-.32.83.83,0,0,1-.27-.65,1,1,0,0,1,1-1h.07a1.07,1.07,0,0,1,.63.17,1.36,1.36,0,0,1,.39.44Z" transform="translate(-2.34)" fill="#2f55cc"/>
    <path d="M132.63,106.38a1.45,1.45,0,0,1,1,.27,1.2,1.2,0,0,1,.36.85,1.09,1.09,0,0,1-1.07,1.11h-.51v1.71H132v-3.94Zm-.28,1.81h.36c.52,0,.83-.26.83-.71,0-.63-.58-.69-.86-.69h-.33Z" transform="translate(-2.34)" fill="#2f55cc"/>
    <path d="M135.25,106.38a1.75,1.75,0,0,1,.95.21,1.05,1.05,0,0,1,.43.88,1,1,0,0,1-1,1.09h0l1.25,1.76h-.53l-1.19-1.73h-.11v1.73h-.44v-3.94ZM135,108.2h.29c.54,0,.86-.26.86-.72a.6.6,0,0,0-.31-.58,1.2,1.2,0,0,0-.56-.11H135Z" transform="translate(-2.34)" fill="#2f55cc"/>
    <path d="M139.75,109.21h-1.68l-.47,1.11h-.48l1.82-4.13,1.76,4.13h-.48Zm-.16-.42-.66-1.57-.68,1.57Z" transform="translate(-2.34)" fill="#2f55cc"/>
    <path d="M141,106.38l1.05,3,1.18-3.16,1.18,3.16,1.19-3h.49l-1.67,4.15-1.18-3.16L142,110.53l-1.52-4.15Z" transform="translate(-2.34)" fill="#2f55cc"/>
    <path d="M146.62,106.38h.77a2.12,2.12,0,0,1,1.45.46,2,2,0,0,1,.18,2.86,1.45,1.45,0,0,1-.18.17,2,2,0,0,1-1.44.45h-.8Zm.44,3.55h.39a1.68,1.68,0,0,0,1.12-.35,1.57,1.57,0,0,0-1.12-2.76h-.39Z" transform="translate(-2.34)" fill="#2f55cc"/>
    <path d="M150.73,109.91h2.09v.41H150l2.16-3.55h-1.87v-.41h2.6Zm1.61-4.54-.9.69-.26-.19.74-.77Z" transform="translate(-2.34)" fill="#2f55cc"/>
    <path d="M103.8,90.27h-1.68l-.48,1.11h-.48L103,87.25l1.76,4.13h-.48Zm-.17-.41L103,88.28l-.68,1.58Z" transform="translate(-2.34)" fill="#2f55cc"/>
    <path d="M105.17,91.38l.65-4.16,1.52,3.34,1.55-3.34.61,4.16h-.45l-.38-2.74-1.33,2.91L106,88.64l-.39,2.74Z" transform="translate(-2.34)" fill="#2f55cc"/>
    <path d="M112.59,90.27h-1.68l-.47,1.11H110l1.81-4.13,1.78,4.13h-.48Zm-.18-.41-.66-1.58-.67,1.58Z" transform="translate(-2.34)" fill="#2f55cc"/>
    <path d="M114.46,91h2.16v.41h-2.83l2.15-3.55h-1.88v-.41h2.56Z" transform="translate(-2.34)" fill="#2f55cc"/>
    <path d="M117.7,87.44v3.94h-.43V87.44Z" transform="translate(-2.34)" fill="#2f55cc"/>
    <path d="M118.72,91.38V87.32l3.08,3.22v-3.1h.44v4.12l-3.08-3.22v3Z" transform="translate(-2.34)" fill="#2f55cc"/>
    <path d="M125.29,89.41h1.65v.09a2.18,2.18,0,0,1-.38,1.19,1.8,1.8,0,0,1-1.47.71,2.05,2.05,0,1,1-.31-4.09,1.61,1.61,0,0,1,.31,0,2,2,0,0,1,1.18.39,2.27,2.27,0,0,1,.45.48l-.32.29a1.84,1.84,0,0,0-.38-.41,1.41,1.41,0,0,0-1-.33,1.63,1.63,0,0,0,0,3.25,1.34,1.34,0,0,0,1.18-.66,1.22,1.22,0,0,0,.17-.56h-1.19Z" transform="translate(-2.34)" fill="#2f55cc"/>
    <path d="M103.85,167.19a7.58,7.58,0,0,0,7.58,7.58v-3.69a3.9,3.9,0,1,1,0-7.79V159.6A7.58,7.58,0,0,0,103.85,167.19Z" transform="translate(-2.34)" fill="#ff4c31"/>
    <g>
      <polygon points="116.68 163.39 109.09 163.39 109.09 165.92 114.15 165.92 116.68 163.39" fill="#ff9100"/>
      <polygon points="109.09 170.98 116.68 170.98 114.15 168.45 109.09 168.45 109.09 170.98" fill="#5371f0"/>
    </g>
    <rect x="139.09" y="170.41" width="38.65" height="4.29" rx="2.15" fill="#5371f0"/>
    <rect x="139.09" y="165.04" width="38.65" height="4.29" rx="2.15" fill="#ff9100"/>
    <rect x="139.09" y="159.67" width="38.65" height="4.29" rx="2.15" fill="#ff4c31"/>
    <path d="M292.36,198.32h-122A16.19,16.19,0,0,0,154.2,214.5v12.12H308.53V214.5A16.18,16.18,0,0,0,292.36,198.32Z" transform="translate(-2.34)" fill="#f2f2f2"/>
    <path d="M178.05,192.66h-4.2a3.47,3.47,0,0,0-3.47,3.47v2.19h11.14v-2.19A3.47,3.47,0,0,0,178.05,192.66Z" transform="translate(-2.34)" fill="#232323"/>
    <path d="M190.6,192.66h-4.2a3.48,3.48,0,0,0-3.48,3.47v2.19h11.15v-2.19A3.48,3.48,0,0,0,190.6,192.66Z" transform="translate(-2.34)" fill="#232323"/>
    <path d="M202.84,192.66h-4.2a3.47,3.47,0,0,0-3.47,3.47v2.19h11.15v-2.19A3.48,3.48,0,0,0,202.84,192.66Z" transform="translate(-2.34)" fill="#232323"/>
    <path d="M215.39,192.66h-4.2a3.48,3.48,0,0,0-3.48,3.47v2.19h11.15v-2.19A3.47,3.47,0,0,0,215.39,192.66Z" transform="translate(-2.34)" fill="#232323"/>
    <path d="M227.89,192.66h-4.2a3.48,3.48,0,0,0-3.47,3.47v2.19h11.15v-2.19A3.48,3.48,0,0,0,227.89,192.66Z" transform="translate(-2.34)" fill="#232323"/>
    <path d="M240.17,192.66H236a3.47,3.47,0,0,0-3.47,3.47v2.19h11.15v-2.19A3.48,3.48,0,0,0,240.17,192.66Z" transform="translate(-2.34)" fill="#232323"/>
    <path d="M252.72,192.66h-4.2a3.48,3.48,0,0,0-3.48,3.47v2.19h11.15v-2.19A3.47,3.47,0,0,0,252.72,192.66Z" transform="translate(-2.34)" fill="#232323"/>
    <path d="M265,192.66h-4.2a3.48,3.48,0,0,0-3.48,3.47v2.19h11.15v-2.19A3.48,3.48,0,0,0,265,192.66Z" transform="translate(-2.34)" fill="#232323"/>
    <path d="M277.51,192.66h-4.2a3.47,3.47,0,0,0-3.47,3.47v2.19H281v-2.19A3.47,3.47,0,0,0,277.51,192.66Z" transform="translate(-2.34)" fill="#232323"/>
    <path d="M290,192.66h-4.2a3.48,3.48,0,0,0-3.48,3.47v2.19h11.15v-2.19A3.48,3.48,0,0,0,290,192.66Z" transform="translate(-2.34)" fill="#232323"/>
    <rect x="151.86" y="214.5" width="154.33" height="12.12" fill="#ddd"/>
    <path d="M438.56,214.5H372.74a4.43,4.43,0,0,0-4.43,4.43v7.69H443v-7.69A4.43,4.43,0,0,0,438.56,214.5Z" transform="translate(-2.34)" fill="#111"/>
    <path d="M420.12,204.75H391.18a9.74,9.74,0,0,0-9.75,9.75h48.44A9.74,9.74,0,0,0,420.12,204.75Z" transform="translate(-2.34)" fill="#232323"/>
    <rect x="389.97" y="197.27" width="26.68" height="7.48" fill="#111"/>
    <rect x="396.68" y="139.63" width="13.27" height="57.64" fill="#ff4c31"/>
    <circle cx="403.31" cy="139.63" r="18.45" fill="#ff321d"/>
    <path d="M377.56,207h3.06a7.53,7.53,0,0,1,7.53,7.53v0a0,0,0,0,1,0,0H370a0,0,0,0,1,0,0v0A7.53,7.53,0,0,1,377.56,207Z" fill="#ff321d"/>
    <path d="M426,207h3.06a7.53,7.53,0,0,1,7.53,7.53v0a0,0,0,0,1,0,0H418.48a0,0,0,0,1,0,0v0A7.53,7.53,0,0,1,426,207Z" fill="#ff321d"/>
  </g>
</svg>
